<?xml version="1.0" encoding="UTF-8" standalone="no"?>
<svg
   xmlns:dc="http://purl.org/dc/elements/1.1/"
   xmlns:cc="http://creativecommons.org/ns#"
   xmlns:rdf="http://www.w3.org/1999/02/22-rdf-syntax-ns#"
   xmlns:svg="http://www.w3.org/2000/svg"
   xmlns="http://www.w3.org/2000/svg"
   xmlns:sodipodi="http://sodipodi.sourceforge.net/DTD/sodipodi-0.dtd"
   xmlns:inkscape="http://www.inkscape.org/namespaces/inkscape"
   sodipodi:docname="back.svg"
   inkscape:version="1.0 (4035a4fb49, 2020-05-01)"
   id="svg20602"
   version="1.1"
   viewBox="0 0 110 70"
   height="70mm"
   width="110mm">
  <defs
     id="defs20596">
    <clipPath
       clipPathUnits="userSpaceOnUse"
       id="clipPath4710">
      <path
         d="m 2573.07,2021.52 c -1.88,0.01 -3.75,0.39 -5.52,1.16 -3.98,1.73 -7.48,5 -10.33,9.43 0.81,1.45 1.54,2.94 2.2,4.46 2.87,6.67 4.23,13.97 4.33,21.22 -0.01,0.14 -0.02,0.29 -0.03,0.43 l -0.01,0.38 c -0.01,2.84 -0.44,5.72 -1.42,8.4 -1.12,3.09 -2.92,6.18 -5.77,7.39 -0.52,0.21 -1.06,0.31 -1.6,0.29 -3.59,6.7 -3.7,13.12 0,19.23 0.06,0 0.13,0 0.2,0 4.36,-0.05 8.68,-1.39 12.38,-3.74 10.07,-6.41 15.09,-18.88 15.2,-31.13 0,-0.15 0,-0.29 0,-0.43 h 0.05 c -0.01,-12.95 -3.12,-26.08 -9.68,-37.09 z m -22.33,-20.32 c -9.4,-3.87 -20.33,-3.67 -29.65,0.66 -10.72,4.98 -18.92,14.66 -23.97,25.7 -8.63,18.89 -8.83,41.48 -0.64,60.66 6.15,-2.46 11.62,1.46 11.62,1.46 0,0 -0.01,-6.03 5.82,-9.05 -5.99,-14.04 -5.84,-30.71 0.16,-44.38 2.89,-6.58 7.3,-12.71 13.42,-16.17 2.19,-1.24 4.58,-2.04 7.05,-2.34 0.01,-0.01 0.02,-0.03 0.03,-0.04 4.36,-6.8 9.85,-12.47 16.16,-16.5 z"
         id="path4708" />
    </clipPath>
    <linearGradient
       x1="0"
       y1="0"
       x2="1"
       y2="0"
       gradientUnits="userSpaceOnUse"
       gradientTransform="matrix(62.9784,0,0,-62.9784,2490.49,2057.58)"
       spreadMethod="pad"
       id="linearGradient4718">
      <stop
         style="stop-opacity:1;stop-color:#49bed6"
         offset="0"
         id="stop4714" />
      <stop
         style="stop-opacity:1;stop-color:#6abfa8"
         offset="1"
         id="stop4716" />
    </linearGradient>
    <clipPath
       clipPathUnits="userSpaceOnUse"
       id="clipPath4728">
      <path
         d="m 2573.07,2021.51 c -1.88,0.01 -3.75,0.39 -5.52,1.16 -3.98,1.74 -7.48,5.01 -10.33,9.44 0.81,1.45 1.54,2.94 2.2,4.46 0.86,2.01 1.59,4.08 2.19,6.19 1.38,4.88 19.78,-1.31 16.97,-9.36 -1.45,-4.14 -3.28,-8.14 -5.51,-11.89 z m -22.33,-20.32 c -9.41,-3.86 -20.33,-3.65 -29.65,0.67 -10.72,4.98 0.29,21.68 6.41,18.22 2.18,-1.24 4.58,-2.04 7.05,-2.34 0.01,-0.01 0.02,-0.03 0.03,-0.04 4.36,-6.81 9.85,-12.47 16.16,-16.51 z"
         clip-rule="evenodd"
         id="path4726" />
    </clipPath>
    <mask
       maskUnits="userSpaceOnUse"
       x="0"
       y="0"
       width="1"
       height="1"
       id="mask4744">
      <g
         id="g4752">
        <g
           clip-path="url(#clipPath4734)"
           id="g4750">
          <g
             id="g4748">
            <path
               d="m 2510.37,1997.33 h 71.02 v 50.31 h -71.02 z"
               style="fill:url(#linearGradient4742);stroke:none"
               id="path4746" />
          </g>
        </g>
      </g>
    </mask>
    <clipPath
       clipPathUnits="userSpaceOnUse"
       id="clipPath4734">
      <path
         d="m 2510.37,1997.33 h 71.02 v 50.31 h -71.02 z"
         id="path4732" />
    </clipPath>
    <linearGradient
       x1="0"
       y1="0"
       x2="1"
       y2="0"
       gradientUnits="userSpaceOnUse"
       gradientTransform="matrix(39.1325,20.1001,20.1001,-39.1325,2527.13,2016.68)"
       spreadMethod="pad"
       id="linearGradient4742">
      <stop
         style="stop-opacity:0;stop-color:#ffffff"
         offset="0"
         id="stop4736" />
      <stop
         style="stop-opacity:1;stop-color:#ffffff"
         offset="0.5141"
         id="stop4738" />
      <stop
         style="stop-opacity:0;stop-color:#ffffff"
         offset="1"
         id="stop4740" />
    </linearGradient>
    <linearGradient
       x1="0"
       y1="0"
       x2="1"
       y2="0"
       gradientUnits="userSpaceOnUse"
       gradientTransform="matrix(39.1325,20.1001,20.1001,-39.1325,2527.13,2016.68)"
       spreadMethod="pad"
       id="linearGradient4764">
      <stop
         style="stop-opacity:1;stop-color:#010000"
         offset="0"
         id="stop4758" />
      <stop
         style="stop-opacity:1;stop-color:#010000"
         offset="0.5141"
         id="stop4760" />
      <stop
         style="stop-opacity:1;stop-color:#010000"
         offset="1"
         id="stop4762" />
    </linearGradient>
    <clipPath
       clipPathUnits="userSpaceOnUse"
       id="clipPath4774">
      <path
         d="m 2527.19,2058.61 c -0.01,0.14 -0.01,0.28 -0.01,0.43 0.11,12.25 5.13,24.72 15.2,31.13 3.7,2.35 8.02,3.69 12.39,3.74 0.06,0 0.13,0 0.2,0 v -19.23 c -0.55,0.02 -1.09,-0.08 -1.61,-0.29 -2.85,-1.21 -4.64,-4.3 -5.77,-7.39 -0.98,-2.68 -1.41,-5.56 -1.42,-8.4 v -0.38 c -0.01,-0.14 -0.02,-0.29 -0.04,-0.43 0.11,-7.25 1.47,-14.55 4.34,-21.22 3.21,-7.46 8.31,-14.33 15.52,-17.47 5.44,-2.37 11.46,-1.81 16.39,0.98 6.12,3.46 10.54,9.59 13.42,16.17 6.01,13.67 6.15,30.34 0.16,44.38 5.84,3.02 5.83,9.05 5.83,9.05 0,0 5.46,-3.92 11.61,-1.46 8.19,-19.18 7.99,-41.77 -0.64,-60.66 -5.05,-11.04 -13.24,-20.72 -23.97,-25.7 -9.55,-4.43 -20.77,-4.54 -30.33,-0.38 -8.58,3.74 -15.57,10.49 -20.59,18.33 -7.28,11.35 -10.72,25.18 -10.74,38.8 z"
         id="path4772" />
    </clipPath>
    <linearGradient
       x1="0"
       y1="0"
       x2="1"
       y2="0"
       gradientUnits="userSpaceOnUse"
       gradientTransform="matrix(-62.8719,0,0,62.8719,2619.39,2055.99)"
       spreadMethod="pad"
       id="linearGradient4782">
      <stop
         style="stop-opacity:1;stop-color:#3ab28e"
         offset="0"
         id="stop4778" />
      <stop
         style="stop-opacity:1;stop-color:#6abfa8"
         offset="1"
         id="stop4780" />
    </linearGradient>
  </defs>
  <sodipodi:namedview
     inkscape:window-maximized="1"
     inkscape:window-y="27"
     inkscape:window-x="0"
     inkscape:window-height="1136"
     inkscape:window-width="1920"
     inkscape:pagecheckerboard="true"
     showgrid="false"
     inkscape:document-rotation="0"
     inkscape:current-layer="layer1"
     inkscape:document-units="mm"
     inkscape:cy="560"
     inkscape:cx="400"
     inkscape:zoom="0.35"
     inkscape:pageshadow="2"
     inkscape:pageopacity="0.0"
     borderopacity="1.0"
     bordercolor="#666666"
     pagecolor="#ffffff"
     id="base" />
  <metadata
     id="metadata20599">
    <rdf:RDF>
      <cc:Work
         rdf:about="">
        <dc:format>image/svg+xml</dc:format>
        <dc:type
           rdf:resource="http://purl.org/dc/dcmitype/StillImage" />
        <dc:title></dc:title>
      </cc:Work>
    </rdf:RDF>
  </metadata>
  <g
     id="layer1"
     inkscape:groupmode="layer"
     inkscape:label="Vrstva 1">
    <g
       transform="translate(-43.273807,-29.25595)"
       id="g21349">
      <g
         id="g4704"
         transform="matrix(0.35277777,0,0,-0.35277777,-802.94987,769.34758)">
        <g
           clip-path="url(#clipPath4710)"
           id="g4706">
          <g
             id="g4712">
            <path
               id="path4720"
               style="fill:url(#linearGradient4718);stroke:none"
               d="m 2573.07,2021.52 c -1.88,0.01 -3.75,0.39 -5.52,1.16 -3.98,1.73 -7.48,5 -10.33,9.43 0.81,1.45 1.54,2.94 2.2,4.46 2.87,6.67 4.23,13.97 4.33,21.22 -0.01,0.14 -0.02,0.29 -0.03,0.43 l -0.01,0.38 c -0.01,2.84 -0.44,5.72 -1.42,8.4 -1.12,3.09 -2.92,6.18 -5.77,7.39 -0.52,0.21 -1.06,0.31 -1.6,0.29 -3.59,6.7 -3.7,13.12 0,19.23 0.06,0 0.13,0 0.2,0 4.36,-0.05 8.68,-1.39 12.38,-3.74 10.07,-6.41 15.09,-18.88 15.2,-31.13 0,-0.15 0,-0.29 0,-0.43 h 0.05 c -0.01,-12.95 -3.12,-26.08 -9.68,-37.09 z m -22.33,-20.32 c -9.4,-3.87 -20.33,-3.67 -29.65,0.66 -10.72,4.98 -18.92,14.66 -23.97,25.7 -8.63,18.89 -8.83,41.48 -0.64,60.66 6.15,-2.46 11.62,1.46 11.62,1.46 0,0 -0.01,-6.03 5.82,-9.05 -5.99,-14.04 -5.84,-30.71 0.16,-44.38 2.89,-6.58 7.3,-12.71 13.42,-16.17 2.19,-1.24 4.58,-2.04 7.05,-2.34 0.01,-0.01 0.02,-0.03 0.03,-0.04 4.36,-6.8 9.85,-12.47 16.16,-16.5 z" />
          </g>
        </g>
      </g>
      <g
         id="g4722"
         transform="matrix(0.35277777,0,0,-0.35277777,-802.94987,769.34758)">
        <g
           clip-path="url(#clipPath4728)"
           id="g4724">
          <g
             id="g4730" />
          <g
             mask="url(#mask4744)"
             id="g4754">
            <g
               id="g4756">
              <path
                 id="path4766"
                 style="fill:url(#linearGradient4764);fill-rule:evenodd;stroke:none"
                 d="m 2573.07,2021.51 c -1.88,0.01 -3.75,0.39 -5.52,1.16 -3.98,1.74 -7.48,5.01 -10.33,9.44 0.81,1.45 1.54,2.94 2.2,4.46 0.86,2.01 1.59,4.08 2.19,6.19 1.38,4.88 19.78,-1.31 16.97,-9.36 -1.45,-4.14 -3.28,-8.14 -5.51,-11.89 z m -22.33,-20.32 c -9.41,-3.86 -20.33,-3.65 -29.65,0.67 -10.72,4.98 0.29,21.68 6.41,18.22 2.18,-1.24 4.58,-2.04 7.05,-2.34 0.01,-0.01 0.02,-0.03 0.03,-0.04 4.36,-6.81 9.85,-12.47 16.16,-16.51 z" />
            </g>
          </g>
        </g>
      </g>
      <g
         id="g4768"
         transform="matrix(0.35277777,0,0,-0.35277777,-802.94987,769.34758)">
        <g
           clip-path="url(#clipPath4774)"
           id="g4770">
          <g
             id="g4776">
            <path
               id="path4784"
               style="fill:url(#linearGradient4782);stroke:none"
               d="m 2527.19,2058.61 c -0.01,0.14 -0.01,0.28 -0.01,0.43 0.11,12.25 5.13,24.72 15.2,31.13 3.7,2.35 8.02,3.69 12.39,3.74 0.06,0 0.13,0 0.2,0 v -19.23 c -0.55,0.02 -1.09,-0.08 -1.61,-0.29 -2.85,-1.21 -4.64,-4.3 -5.77,-7.39 -0.98,-2.68 -1.41,-5.56 -1.42,-8.4 v -0.38 c -0.01,-0.14 -0.02,-0.29 -0.04,-0.43 0.11,-7.25 1.47,-14.55 4.34,-21.22 3.21,-7.46 8.31,-14.33 15.52,-17.47 5.44,-2.37 11.46,-1.81 16.39,0.98 6.12,3.46 10.54,9.59 13.42,16.17 6.01,13.67 6.15,30.34 0.16,44.38 5.84,3.02 5.83,9.05 5.83,9.05 0,0 5.46,-3.92 11.61,-1.46 8.19,-19.18 7.99,-41.77 -0.64,-60.66 -5.05,-11.04 -13.24,-20.72 -23.97,-25.7 -9.55,-4.43 -20.77,-4.54 -30.33,-0.38 -8.58,3.74 -15.57,10.49 -20.59,18.33 -7.28,11.35 -10.72,25.18 -10.74,38.8 z" />
          </g>
        </g>
      </g>
      <path
         id="path4786"
         style="fill:#ffffff;fill-opacity:1;fill-rule:nonzero;stroke:none;stroke-width:0.352777"
         d="m 68.400635,73.652194 h 1.654528 l 0.772582,4.547304 c 0.07056,0.486833 0.148167,0.966613 0.22578,1.44639 0.07761,0.47625 0.15522,0.9525 0.229304,1.432276 h 0.05292 c 0.09172,-0.479776 0.186974,-0.959553 0.282224,-1.439333 0.09878,-0.483304 0.197556,-0.963083 0.296333,-1.439333 l 1.118302,-4.547304 h 1.375834 l 1.118303,4.547304 c 0.09878,0.465666 0.197557,0.941916 0.292807,1.425223 0.09878,0.483306 0.197556,0.96661 0.296333,1.453443 h 0.05644 c 0.07408,-0.486833 0.148166,-0.970137 0.22225,-1.446387 l 0.218727,-1.432279 0.772583,-4.547304 h 1.54164 l -1.735667,9.009944 h -1.982613 l -1.118303,-4.741334 c -0.07408,-0.345723 -0.141113,-0.694973 -0.204613,-1.037166 -0.0635,-0.345724 -0.130527,-0.691444 -0.194027,-1.040694 h -0.05644 c -0.0635,0.34925 -0.127,0.69497 -0.1905,1.040694 -0.0635,0.342193 -0.134056,0.691443 -0.208139,1.037166 l -1.086557,4.741334 h -1.957915 z m 12.80936,0 h 5.41514 v 1.34761 h -3.817056 v 2.30364 h 3.2385 v 1.34761 h -3.2385 v 2.659944 h 3.95464 v 1.35114 h -5.552724 z m 8.276167,0 h 2.882196 c 0.458611,0 0.885471,0.0388 1.280584,0.116417 0.39511,0.07761 0.733777,0.201083 1.019527,0.370416 0.28575,0.172861 0.508,0.398637 0.66675,0.684387 0.162276,0.282224 0.243416,0.631474 0.243416,1.04775 0,0.43039 -0.123473,0.82903 -0.373943,1.195917 -0.246947,0.36689 -0.63853,0.62089 -1.171223,0.758473 v 0.05644 c 0.652639,0.109363 1.153583,0.342196 1.502833,0.694973 0.34925,0.352777 0.52211,0.832556 0.52211,1.439333 0,0.451557 -0.08467,0.83961 -0.261054,1.171223 -0.172863,0.331611 -0.416279,0.606777 -0.723196,0.8255 -0.306917,0.22225 -0.673804,0.384527 -1.09361,0.490361 -0.423333,0.105833 -0.881944,0.15875 -1.37936,0.15875 h -3.11503 z m 2.7305,3.732387 c 0.631473,0 1.090083,-0.112887 1.36878,-0.34572 0.28222,-0.229307 0.419803,-0.553863 0.419803,-0.977197 0,-0.41275 -0.144637,-0.71261 -0.433916,-0.896053 -0.289277,-0.183447 -0.726721,-0.275167 -1.31586,-0.275167 h -1.171224 v 2.494137 z m 0.218723,4.039307 c 0.663223,0 1.171223,-0.127 1.524,-0.373944 0.352777,-0.246946 0.529167,-0.627946 0.529167,-1.143 0,-0.469196 -0.17286,-0.814917 -0.52211,-1.040696 -0.34925,-0.225777 -0.86078,-0.338667 -1.531057,-0.338667 h -1.35114 v 2.896307 z m 6.155971,-7.771694 h 1.598084 v 7.658804 h 3.73239 v 1.35114 h -5.330474 z m 11.609914,5.31636 -0.3175,-1.100666 c -0.13758,-0.479777 -0.27516,-0.97014 -0.41275,-1.474611 -0.13758,-0.504473 -0.27164,-1.005416 -0.39864,-1.502833 h -0.0564 c -0.127,0.50447 -0.25752,1.008944 -0.38452,1.509887 -0.13053,0.500946 -0.26811,0.98778 -0.41275,1.467557 l -0.3175,1.100666 z m 0.35984,1.25589 h -3.01978 l -0.70203,2.437694 h -1.64042 l 2.94923,-9.009944 h 1.87325 l 2.93511,9.009944 h -1.69334 z m 5.65855,-5.22464 h -2.60703 v -1.34761 h 6.7945 v 1.34761 h -2.58939 v 7.662334 h -1.59808 z m 6.57931,-1.34761 h 5.41514 v 1.34761 h -3.81706 v 2.30364 h 3.2385 v 1.34761 h -3.2385 v 2.659944 h 3.95464 v 1.35114 h -5.55272 z" />
      <path
         id="path4788"
         style="fill:#ffffff;fill-opacity:1;fill-rule:nonzero;stroke:none;stroke-width:0.352777"
         d="m 43.970775,93.150221 h 0.818444 v 3.922887 h 1.912056 v 0.691446 h -2.7305 z" />
      <path
         id="path4790"
         style="fill:#ffffff;fill-opacity:1;fill-rule:nonzero;stroke:none;stroke-width:0.352777"
         d="m 47.632608,97.764554 h 0.818444 v -4.614333 h -0.818444 z" />
      <path
         id="path4792"
         style="fill:#ffffff;fill-opacity:1;fill-rule:nonzero;stroke:none;stroke-width:0.352777"
         d="m 49.742219,93.150221 h 1.474611 c 0.232833,0 0.451556,0.02117 0.656167,0.05997 0.201083,0.03881 0.373944,0.102307 0.522111,0.1905 0.144639,0.0882 0.257528,0.204613 0.342194,0.34925 0.08114,0.14464 0.123472,0.324557 0.123472,0.536223 0,0.22225 -0.0635,0.426861 -0.1905,0.613834 -0.127,0.186973 -0.328083,0.3175 -0.599722,0.388056 v 0.02822 c 0.331611,0.05645 0.589139,0.176389 0.769056,0.356306 0.176389,0.179917 0.268111,0.42686 0.268111,0.737307 0,0.229303 -0.04586,0.430387 -0.134056,0.59972 -0.09172,0.169333 -0.215194,0.310446 -0.370416,0.423333 -0.15875,0.11289 -0.345723,0.197557 -0.560917,0.250473 -0.218722,0.05292 -0.451556,0.08114 -0.705556,0.08114 h -1.594555 z m 1.397,1.912054 c 0.324555,0 0.557389,-0.05997 0.702028,-0.176387 0.141111,-0.116417 0.215194,-0.28575 0.215194,-0.500947 0,-0.211666 -0.07408,-0.36336 -0.22225,-0.45861 -0.148167,-0.09525 -0.373944,-0.14111 -0.673805,-0.14111 h -0.599723 v 1.277054 z m 0.112889,2.067279 c 0.338666,0 0.596194,-0.0635 0.779639,-0.1905 0.179916,-0.127 0.271639,-0.321029 0.271639,-0.585613 0,-0.239887 -0.09172,-0.416277 -0.268112,-0.532693 -0.179916,-0.116417 -0.440972,-0.17286 -0.783166,-0.17286 h -0.691445 v 1.481666 z" />
      <path
         id="path4794"
         style="fill:#ffffff;fill-opacity:1;fill-rule:nonzero;stroke:none;stroke-width:0.352777"
         d="m 54.892775,95.309221 h 0.649111 c 0.3175,0 0.560916,-0.06703 0.726722,-0.197557 0.162278,-0.130526 0.246944,-0.328083 0.246944,-0.592666 0,-0.26811 -0.08467,-0.455084 -0.246944,-0.55739 -0.165806,-0.102304 -0.409222,-0.15522 -0.726722,-0.15522 h -0.649111 z m 1.693333,2.455333 -0.994833,-1.806223 h -0.6985 v 1.806223 H 54.07433 v -4.614333 h 1.552222 c 0.239889,0 0.462139,0.02469 0.670278,0.07055 0.204611,0.04586 0.384528,0.123473 0.53975,0.229306 0.151695,0.105833 0.271639,0.246944 0.359833,0.419807 0.08467,0.17286 0.130528,0.391583 0.130528,0.64911 0,0.352777 -0.08467,0.638527 -0.250472,0.853723 -0.169333,0.215193 -0.391583,0.370417 -0.673806,0.465667 l 1.100667,1.926166 z" />
      <path
         id="path4796"
         style="fill:#ffffff;fill-opacity:1;fill-rule:nonzero;stroke:none;stroke-width:0.352777"
         d="m 58.420552,93.150221 h 2.772834 v 0.691443 h -1.954389 v 1.178277 h 1.658055 v 0.691447 h -1.658055 v 1.36172 h 2.024944 v 0.691446 h -2.843389 z" />
      <path
         id="path4798"
         style="fill:#ffffff;fill-opacity:1;fill-rule:nonzero;stroke:none;stroke-width:0.352777"
         d="m 63.669885,95.471498 c 0,-0.377473 0.05292,-0.71261 0.165806,-1.012473 0.109361,-0.299861 0.261056,-0.550334 0.455083,-0.758471 0.1905,-0.20814 0.416278,-0.363363 0.677334,-0.472723 0.257527,-0.10936 0.536222,-0.162277 0.832555,-0.162277 0.282222,0 0.532695,0.05997 0.758472,0.176387 0.22225,0.116417 0.405695,0.254 0.553862,0.409223 l -0.451556,0.508 c -0.123472,-0.116416 -0.250472,-0.211666 -0.384528,-0.278693 -0.134055,-0.06703 -0.292805,-0.102307 -0.469194,-0.102307 -0.1905,0 -0.363361,0.03881 -0.522111,0.116417 -0.162278,0.07761 -0.299861,0.186973 -0.41275,0.33161 -0.116417,0.14464 -0.204611,0.3175 -0.268111,0.52564 -0.0635,0.20814 -0.09525,0.440973 -0.09525,0.6985 0,0.52564 0.112888,0.93839 0.345722,1.23825 0.229305,0.29986 0.536222,0.448027 0.924278,0.448027 0.204611,0 0.388055,-0.0388 0.543277,-0.119944 0.155223,-0.08114 0.296334,-0.194026 0.430389,-0.338666 l 0.451556,0.500943 c -0.1905,0.215197 -0.402167,0.381 -0.638528,0.497417 -0.239889,0.116417 -0.504472,0.172863 -0.800806,0.172863 -0.292805,0 -0.567972,-0.05292 -0.821972,-0.155223 -0.257528,-0.102307 -0.479778,-0.257527 -0.66675,-0.45861 -0.1905,-0.201084 -0.338666,-0.451557 -0.4445,-0.74789 -0.109361,-0.296334 -0.162278,-0.635 -0.162278,-1.016 z" />
      <path
         id="path4800"
         style="fill:#ffffff;fill-opacity:1;fill-rule:nonzero;stroke:none;stroke-width:0.352777"
         d="m 69.660052,97.849221 c -0.303389,0 -0.578555,-0.05645 -0.8255,-0.165807 -0.250472,-0.10936 -0.465667,-0.271639 -0.645583,-0.479776 -0.183445,-0.20814 -0.321028,-0.46214 -0.419806,-0.758474 -0.09878,-0.296333 -0.148166,-0.631473 -0.148166,-1.008943 0,-0.370417 0.04939,-0.705557 0.148166,-0.998363 0.09878,-0.292804 0.236361,-0.543277 0.419806,-0.74436 0.179916,-0.201084 0.395111,-0.356307 0.645583,-0.465667 0.246945,-0.10936 0.522111,-0.162277 0.8255,-0.162277 0.299861,0 0.575028,0.05292 0.8255,0.162277 0.246943,0.10936 0.46214,0.264583 0.642056,0.465667 0.176387,0.201083 0.3175,0.451556 0.416277,0.74436 0.09878,0.292806 0.148167,0.627946 0.148167,0.998363 0,0.37747 -0.04939,0.71261 -0.148167,1.008943 -0.09878,0.296334 -0.23989,0.550334 -0.416277,0.758474 -0.179916,0.208137 -0.395113,0.370416 -0.642056,0.479776 -0.250472,0.109361 -0.525639,0.165807 -0.8255,0.165807 z m 0,-0.712613 c 0.176389,0 0.342195,-0.0388 0.490361,-0.119944 0.148167,-0.08114 0.271639,-0.194026 0.377472,-0.342193 0.102307,-0.148167 0.183444,-0.328083 0.23989,-0.536223 0.05644,-0.20814 0.08467,-0.4445 0.08467,-0.702027 0,-0.518583 -0.109363,-0.92428 -0.324557,-1.217083 -0.218722,-0.292807 -0.508,-0.440974 -0.867833,-0.440974 -0.366889,0 -0.659694,0.148167 -0.874889,0.440974 -0.218722,0.292803 -0.324555,0.6985 -0.324555,1.217083 0,0.257527 0.02822,0.493887 0.08467,0.702027 0.05645,0.20814 0.137584,0.388056 0.243417,0.536223 0.105833,0.148167 0.229306,0.261054 0.377472,0.342193 0.144639,0.08114 0.310445,0.119944 0.493889,0.119944 z" />
      <path
         id="path4802"
         style="fill:#ffffff;fill-opacity:1;fill-rule:nonzero;stroke:none;stroke-width:0.352777"
         d="m 72.743329,93.150221 h 0.839613 l 1.432277,2.596443 0.479776,0.980724 h 0.02822 c -0.02469,-0.23989 -0.04939,-0.497417 -0.07056,-0.772584 -0.02469,-0.275166 -0.03528,-0.543279 -0.03528,-0.800806 v -2.003777 h 0.77611 v 4.614333 h -0.83961 l -1.432277,-2.596446 -0.479779,-0.98072 h -0.02822 c 0.02117,0.243416 0.04586,0.500943 0.07055,0.769053 0.02117,0.268113 0.03528,0.532697 0.03528,0.790223 v 2.01789 h -0.776113 z" />
      <path
         id="path4804"
         style="fill:#ffffff;fill-opacity:1;fill-rule:nonzero;stroke:none;stroke-width:0.352777"
         d="m 78.423052,93.841664 h -1.3335 v -0.691443 h 3.47839 v 0.691443 h -1.326447 v 3.92289 h -0.818443 z" />
      <path
         id="path4806"
         style="fill:#ffffff;fill-opacity:1;fill-rule:nonzero;stroke:none;stroke-width:0.352777"
         d="m 81.463995,97.764554 h 0.818447 v -4.614333 h -0.818447 z" />
      <path
         id="path4808"
         style="fill:#ffffff;fill-opacity:1;fill-rule:nonzero;stroke:none;stroke-width:0.352777"
         d="m 83.573608,93.150221 h 0.839611 l 1.432276,2.596443 0.47978,0.980724 h 0.02822 c -0.02468,-0.23989 -0.04939,-0.497417 -0.07055,-0.772584 -0.02469,-0.275166 -0.03528,-0.543279 -0.03528,-0.800806 v -2.003777 h 0.77611 v 4.614333 h -0.839613 l -1.432277,-2.596446 -0.479777,-0.98072 h -0.02822 c 0.02117,0.243416 0.04586,0.500943 0.07056,0.769053 0.02117,0.268113 0.03528,0.532697 0.03528,0.790223 v 2.01789 h -0.776111 z" />
      <path
         id="path4810"
         style="fill:#ffffff;fill-opacity:1;fill-rule:nonzero;stroke:none;stroke-width:0.352777"
         d="m 88.293775,93.150221 h 0.818444 v 2.652887 c 0,0.250473 0.02117,0.458613 0.06703,0.631473 0.04233,0.17286 0.105834,0.310444 0.1905,0.41275 0.08114,0.102307 0.179917,0.17639 0.296334,0.22225 0.11289,0.04586 0.243416,0.06703 0.384529,0.06703 0.141111,0 0.268111,-0.02117 0.388054,-0.06703 0.116417,-0.04586 0.215196,-0.119943 0.299863,-0.22225 0.08114,-0.102306 0.144637,-0.23989 0.194027,-0.41275 0.04586,-0.17286 0.07056,-0.381 0.07056,-0.631473 v -2.652887 h 0.790221 v 2.589387 c 0,0.381 -0.04233,0.705556 -0.123471,0.97014 -0.08467,0.264583 -0.201083,0.483306 -0.34925,0.65264 -0.151696,0.169333 -0.335139,0.292803 -0.546806,0.370416 -0.215194,0.07761 -0.455083,0.116417 -0.723194,0.116417 -0.268113,0 -0.511529,-0.03881 -0.726723,-0.116417 -0.218723,-0.07761 -0.402166,-0.201083 -0.55386,-0.370416 -0.155223,-0.169334 -0.27164,-0.388057 -0.35278,-0.65264 -0.08467,-0.264584 -0.12347,-0.58914 -0.12347,-0.97014 z" />
      <path
         id="path4812"
         style="fill:#ffffff;fill-opacity:1;fill-rule:nonzero;stroke:none;stroke-width:0.352777"
         d="m 94.855442,97.849221 c -0.30339,0 -0.578557,-0.05645 -0.8255,-0.165807 -0.250473,-0.10936 -0.465667,-0.271639 -0.645584,-0.479776 -0.183446,-0.20814 -0.321029,-0.46214 -0.419806,-0.758474 -0.09878,-0.296333 -0.148167,-0.631473 -0.148167,-1.008943 0,-0.370417 0.04939,-0.705557 0.148167,-0.998363 0.09878,-0.292804 0.23636,-0.543277 0.419806,-0.74436 0.179917,-0.201084 0.395111,-0.356307 0.645584,-0.465667 0.246943,-0.10936 0.52211,-0.162277 0.8255,-0.162277 0.29986,0 0.575027,0.05292 0.8255,0.162277 0.246943,0.10936 0.462137,0.264583 0.642053,0.465667 0.17639,0.201083 0.3175,0.451556 0.41628,0.74436 0.09878,0.292806 0.148167,0.627946 0.148167,0.998363 0,0.37747 -0.04939,0.71261 -0.148167,1.008943 -0.09878,0.296334 -0.23989,0.550334 -0.41628,0.758474 -0.179916,0.208137 -0.39511,0.370416 -0.642053,0.479776 -0.250473,0.109361 -0.52564,0.165807 -0.8255,0.165807 z m 0,-0.712613 c 0.176387,0 0.342193,-0.0388 0.49036,-0.119944 0.148167,-0.08114 0.27164,-0.194026 0.377473,-0.342193 0.102304,-0.148167 0.183444,-0.328083 0.239887,-0.536223 0.05645,-0.20814 0.08467,-0.4445 0.08467,-0.702027 0,-0.518583 -0.10936,-0.92428 -0.324554,-1.217083 -0.218723,-0.292807 -0.508,-0.440974 -0.867833,-0.440974 -0.36689,0 -0.659697,0.148167 -0.87489,0.440974 -0.218723,0.292803 -0.324557,0.6985 -0.324557,1.217083 0,0.257527 0.02822,0.493887 0.08467,0.702027 0.05645,0.20814 0.137583,0.388056 0.243417,0.536223 0.105833,0.148167 0.229306,0.261054 0.377473,0.342193 0.14464,0.08114 0.310443,0.119944 0.49389,0.119944 z" />
      <path
         id="path4814"
         style="fill:#ffffff;fill-opacity:1;fill-rule:nonzero;stroke:none;stroke-width:0.352777"
         d="m 97.910495,93.150221 h 0.818444 v 2.652887 c 0,0.250473 0.02117,0.458613 0.06703,0.631473 0.04233,0.17286 0.105833,0.310444 0.1905,0.41275 0.08114,0.102307 0.179916,0.17639 0.296333,0.22225 0.112887,0.04586 0.243417,0.06703 0.384527,0.06703 0.14111,0 0.26811,-0.02117 0.388051,-0.06703 0.11642,-0.04586 0.2152,-0.119943 0.29986,-0.22225 0.0811,-0.102306 0.14464,-0.23989 0.19403,-0.41275 0.0459,-0.17286 0.0706,-0.381 0.0706,-0.631473 v -2.652887 h 0.79022 v 2.589387 c 0,0.381 -0.0423,0.705556 -0.12347,0.97014 -0.0847,0.264583 -0.20108,0.483306 -0.34925,0.65264 -0.15169,0.169333 -0.33514,0.292803 -0.54681,0.370416 -0.21519,0.07761 -0.455078,0.116417 -0.723188,0.116417 -0.26811,0 -0.511527,-0.03881 -0.726723,-0.116417 -0.218721,-0.07761 -0.402167,-0.201083 -0.553861,-0.370416 -0.155223,-0.169334 -0.271639,-0.388057 -0.352776,-0.65264 -0.08467,-0.264584 -0.123474,-0.58914 -0.123474,-0.97014 z" />
      <path
         id="path4816"
         style="fill:#ffffff;fill-opacity:1;fill-rule:nonzero;stroke:none;stroke-width:0.352777"
         d="m 102.76472,96.614498 c 0.16227,0.155223 0.35277,0.282223 0.56444,0.377473 0.21167,0.09525 0.42333,0.144637 0.64206,0.144637 0.25752,0 0.45508,-0.05292 0.59619,-0.162277 0.13758,-0.10936 0.20814,-0.250473 0.20814,-0.43039 0,-0.09525 -0.0176,-0.17286 -0.0529,-0.239887 -0.0353,-0.06703 -0.0847,-0.123473 -0.14816,-0.172863 -0.0635,-0.04939 -0.14112,-0.09525 -0.22931,-0.137583 -0.0917,-0.04233 -0.18697,-0.08467 -0.28928,-0.127 l -0.62794,-0.275167 c -0.11289,-0.04586 -0.22578,-0.105833 -0.33867,-0.176387 -0.11289,-0.07056 -0.21519,-0.155223 -0.29986,-0.254 -0.0882,-0.09878 -0.15875,-0.215196 -0.21167,-0.345723 -0.0564,-0.130527 -0.0811,-0.282223 -0.0811,-0.451556 0,-0.183444 0.0388,-0.352777 0.11642,-0.511527 0.0776,-0.15875 0.18344,-0.296334 0.32103,-0.41275 0.13405,-0.116417 0.29633,-0.20814 0.48683,-0.275167 0.18697,-0.06703 0.39511,-0.09878 0.62089,-0.09878 0.27164,0 0.53269,0.05292 0.78316,0.15875 0.24695,0.105834 0.46214,0.246944 0.64206,0.42686 l -0.42333,0.522111 c -0.14817,-0.123471 -0.29986,-0.218721 -0.46214,-0.289277 -0.16228,-0.07056 -0.3422,-0.105834 -0.53975,-0.105834 -0.22225,0 -0.39864,0.04939 -0.52564,0.14464 -0.13053,0.09525 -0.19403,0.229304 -0.19403,0.398637 0,0.0882 0.0176,0.165807 0.06,0.229307 0.0388,0.0635 0.0917,0.119943 0.16228,0.169333 0.067,0.04939 0.14464,0.09525 0.23636,0.134057 0.0882,0.0388 0.17992,0.07761 0.27517,0.116416 l 0.62088,0.261054 c 0.13406,0.05645 0.26106,0.123473 0.37748,0.197556 0.11289,0.07408 0.21166,0.162277 0.29633,0.261057 0.0811,0.09878 0.14464,0.211667 0.1905,0.342193 0.0423,0.130527 0.067,0.278694 0.067,0.448027 0,0.186973 -0.0388,0.363363 -0.11289,0.529167 -0.0776,0.165806 -0.18697,0.310446 -0.32808,0.433917 -0.14464,0.123473 -0.3175,0.22225 -0.52211,0.296333 -0.20461,0.07408 -0.43745,0.109363 -0.69497,0.109363 -0.31045,0 -0.61031,-0.05997 -0.89606,-0.17639 -0.28928,-0.116417 -0.54328,-0.28575 -0.762,-0.500943 z" />
      <path
         id="path4818"
         style="fill:#ffffff;fill-opacity:1;fill-rule:nonzero;stroke:none;stroke-width:0.352777"
         d="m 108.16222,93.150221 h 0.81844 v 3.922887 h 1.91206 v 0.691446 h -2.7305 z" />
      <path
         id="path4820"
         style="fill:#ffffff;fill-opacity:1;fill-rule:nonzero;stroke:none;stroke-width:0.352777"
         d="m 113.39744,97.849221 c -0.30339,0 -0.57856,-0.05645 -0.8255,-0.165807 -0.25047,-0.10936 -0.46567,-0.271639 -0.64558,-0.479776 -0.18345,-0.20814 -0.32103,-0.46214 -0.41981,-0.758474 -0.0988,-0.296333 -0.14817,-0.631473 -0.14817,-1.008943 0,-0.370417 0.0494,-0.705557 0.14817,-0.998363 0.0988,-0.292804 0.23636,-0.543277 0.41981,-0.74436 0.17991,-0.201084 0.39511,-0.356307 0.64558,-0.465667 0.24694,-0.10936 0.52211,-0.162277 0.8255,-0.162277 0.29986,0 0.57503,0.05292 0.8255,0.162277 0.24694,0.10936 0.46214,0.264583 0.64205,0.465667 0.17639,0.201083 0.3175,0.451556 0.41628,0.74436 0.0988,0.292806 0.14817,0.627946 0.14817,0.998363 0,0.37747 -0.0494,0.71261 -0.14817,1.008943 -0.0988,0.296334 -0.23989,0.550334 -0.41628,0.758474 -0.17991,0.208137 -0.39511,0.370416 -0.64205,0.479776 -0.25047,0.109361 -0.52564,0.165807 -0.8255,0.165807 z m 0,-0.712613 c 0.17639,0 0.34219,-0.0388 0.49036,-0.119944 0.14817,-0.08114 0.27164,-0.194026 0.37747,-0.342193 0.10231,-0.148167 0.18345,-0.328083 0.23989,-0.536223 0.0564,-0.20814 0.0847,-0.4445 0.0847,-0.702027 0,-0.518583 -0.10936,-0.92428 -0.32456,-1.217083 -0.21872,-0.292807 -0.508,-0.440974 -0.86783,-0.440974 -0.36689,0 -0.65969,0.148167 -0.87489,0.440974 -0.21872,0.292803 -0.32455,0.6985 -0.32455,1.217083 0,0.257527 0.0282,0.493887 0.0847,0.702027 0.0564,0.20814 0.13758,0.388056 0.24341,0.536223 0.10584,0.148167 0.22931,0.261054 0.37748,0.342193 0.14463,0.08114 0.31044,0.119944 0.49388,0.119944 z" />
      <path
         id="path4822"
         style="fill:#ffffff;fill-opacity:1;fill-rule:nonzero;stroke:none;stroke-width:0.352777"
         d="m 116.23377,95.471498 c 0,-0.377473 0.0529,-0.71261 0.16581,-1.012473 0.10936,-0.299861 0.26105,-0.550334 0.45508,-0.758471 0.1905,-0.20814 0.41628,-0.363363 0.67733,-0.472723 0.25753,-0.10936 0.53623,-0.162277 0.83256,-0.162277 0.28222,0 0.53269,0.05997 0.75847,0.176387 0.22225,0.116417 0.4057,0.254 0.55386,0.409223 l -0.45155,0.508 c -0.12347,-0.116416 -0.25047,-0.211666 -0.38453,-0.278693 -0.13406,-0.06703 -0.29281,-0.102307 -0.46919,-0.102307 -0.1905,0 -0.36337,0.03881 -0.52212,0.116417 -0.16227,0.07761 -0.29986,0.186973 -0.41275,0.33161 -0.11641,0.14464 -0.20461,0.3175 -0.26811,0.52564 -0.0635,0.20814 -0.0952,0.440973 -0.0952,0.6985 0,0.52564 0.11289,0.93839 0.34573,1.23825 0.2293,0.29986 0.53622,0.448027 0.92427,0.448027 0.20461,0 0.38806,-0.0388 0.54328,-0.119944 0.15522,-0.08114 0.29633,-0.194026 0.43039,-0.338666 l 0.45156,0.500943 c -0.1905,0.215197 -0.40217,0.381 -0.63853,0.497417 -0.23989,0.116417 -0.50447,0.172863 -0.80081,0.172863 -0.2928,0 -0.56797,-0.05292 -0.82197,-0.155223 -0.25753,-0.102307 -0.47978,-0.257527 -0.66675,-0.45861 -0.1905,-0.201084 -0.33867,-0.451557 -0.4445,-0.74789 -0.10936,-0.296334 -0.16228,-0.635 -0.16228,-1.016 z" />
      <path
         id="path4824"
         style="fill:#ffffff;fill-opacity:1;fill-rule:nonzero;stroke:none;stroke-width:0.352777"
         d="m 122.61905,95.873664 -0.16228,-0.564443 c -0.0706,-0.243417 -0.14111,-0.497417 -0.21166,-0.754946 -0.0706,-0.257527 -0.14112,-0.515054 -0.20462,-0.769054 h -0.0282 c -0.067,0.257527 -0.13405,0.515054 -0.19755,0.772583 -0.067,0.257527 -0.13758,0.508 -0.21167,0.751417 l -0.16228,0.564443 z m 0.18344,0.642057 h -1.54516 l -0.35984,1.248833 h -0.83961 l 1.50989,-4.614333 h 0.95956 l 1.50283,4.614333 h -0.86783 z" />
      <path
         id="path4826"
         style="fill:#ffffff;fill-opacity:1;fill-rule:nonzero;stroke:none;stroke-width:0.352777"
         d="m 124.72161,93.150221 h 0.81844 v 3.922887 h 1.91206 v 0.691446 h -2.7305 z" />
      <path
         id="path4828"
         style="fill:#ffffff;fill-opacity:1;fill-rule:nonzero;stroke:none;stroke-width:0.352777"
         d="m 128.38344,97.764554 h 0.81844 v -4.614333 h -0.81844 z" />
      <path
         id="path4830"
         style="fill:#ffffff;fill-opacity:1;fill-rule:nonzero;stroke:none;stroke-width:0.352777"
         d="m 130.18261,97.270664 2.23661,-3.429 h -2.02495 v -0.691443 h 3.03389 v 0.493887 l -2.22955,3.429 h 2.25072 v 0.691446 h -3.26672 z" />
      <path
         id="path4832"
         style="fill:#ffffff;fill-opacity:1;fill-rule:nonzero;stroke:none;stroke-width:0.352777"
         d="m 136.34916,95.873664 -0.16228,-0.564443 c -0.0705,-0.243417 -0.14111,-0.497417 -0.21166,-0.754946 -0.0705,-0.257527 -0.14111,-0.515054 -0.20461,-0.769054 h -0.0282 c -0.067,0.257527 -0.13406,0.515054 -0.19756,0.772583 -0.067,0.257527 -0.13758,0.508 -0.21167,0.751417 l -0.16227,0.564443 z m 0.18345,0.642057 h -1.54517 l -0.35983,1.248833 h -0.83962 l 1.50989,-4.614333 h 0.95956 l 1.50283,4.614333 h -0.86783 z" />
      <path
         id="path4834"
         style="fill:#ffffff;fill-opacity:1;fill-rule:nonzero;stroke:none;stroke-width:0.352777"
         d="m 139.10083,93.841664 h -1.3335 v -0.691443 h 3.47839 v 0.691443 h -1.32645 v 3.92289 h -0.81844 z" />
      <path
         id="path4836"
         style="fill:#ffffff;fill-opacity:1;fill-rule:nonzero;stroke:none;stroke-width:0.352777"
         d="m 142.14177,97.764554 h 0.81845 v -4.614333 h -0.81845 z" />
      <path
         id="path4838"
         style="fill:#ffffff;fill-opacity:1;fill-rule:nonzero;stroke:none;stroke-width:0.352777"
         d="m 146.04349,97.849221 c -0.30339,0 -0.57856,-0.05645 -0.8255,-0.165807 -0.25047,-0.10936 -0.46567,-0.271639 -0.64558,-0.479776 -0.18345,-0.20814 -0.32103,-0.46214 -0.41981,-0.758474 -0.0988,-0.296333 -0.14817,-0.631473 -0.14817,-1.008943 0,-0.370417 0.0494,-0.705557 0.14817,-0.998363 0.0988,-0.292804 0.23636,-0.543277 0.41981,-0.74436 0.17991,-0.201084 0.39511,-0.356307 0.64558,-0.465667 0.24694,-0.10936 0.52211,-0.162277 0.8255,-0.162277 0.29986,0 0.57503,0.05292 0.8255,0.162277 0.24694,0.10936 0.46214,0.264583 0.64205,0.465667 0.17639,0.201083 0.3175,0.451556 0.41628,0.74436 0.0988,0.292806 0.14817,0.627946 0.14817,0.998363 0,0.37747 -0.0494,0.71261 -0.14817,1.008943 -0.0988,0.296334 -0.23989,0.550334 -0.41628,0.758474 -0.17991,0.208137 -0.39511,0.370416 -0.64205,0.479776 -0.25047,0.109361 -0.52564,0.165807 -0.8255,0.165807 z m 0,-0.712613 c 0.17639,0 0.34219,-0.0388 0.49036,-0.119944 0.14817,-0.08114 0.27164,-0.194026 0.37747,-0.342193 0.10231,-0.148167 0.18345,-0.328083 0.23989,-0.536223 0.0564,-0.20814 0.0847,-0.4445 0.0847,-0.702027 0,-0.518583 -0.10936,-0.92428 -0.32456,-1.217083 -0.21872,-0.292807 -0.508,-0.440974 -0.86783,-0.440974 -0.36689,0 -0.6597,0.148167 -0.87489,0.440974 -0.21872,0.292803 -0.32456,0.6985 -0.32456,1.217083 0,0.257527 0.0282,0.493887 0.0847,0.702027 0.0565,0.20814 0.13758,0.388056 0.24342,0.536223 0.10583,0.148167 0.2293,0.261054 0.37747,0.342193 0.14464,0.08114 0.31044,0.119944 0.49389,0.119944 z" />
      <path
         id="path4840"
         style="fill:#ffffff;fill-opacity:1;fill-rule:nonzero;stroke:none;stroke-width:0.352777"
         d="m 149.12677,93.150221 h 0.83961 l 1.43228,2.596443 0.47977,0.980724 h 0.0282 c -0.0247,-0.23989 -0.0494,-0.497417 -0.0706,-0.772584 -0.0247,-0.275166 -0.0353,-0.543279 -0.0353,-0.800806 v -2.003777 h 0.77611 v 4.614333 h -0.83961 l -1.43228,-2.596446 -0.47977,-0.98072 h -0.0282 c 0.0212,0.243416 0.0459,0.500943 0.0706,0.769053 0.0212,0.268113 0.0353,0.532697 0.0353,0.790223 v 2.01789 h -0.77611 z" />
    </g>
  </g>
</svg>
