<?xml version="1.0" encoding="UTF-8" standalone="no"?>
<svg
   xmlns:dc="http://purl.org/dc/elements/1.1/"
   xmlns:cc="http://creativecommons.org/ns#"
   xmlns:rdf="http://www.w3.org/1999/02/22-rdf-syntax-ns#"
   xmlns:svg="http://www.w3.org/2000/svg"
   xmlns="http://www.w3.org/2000/svg"
   xmlns:sodipodi="http://sodipodi.sourceforge.net/DTD/sodipodi-0.dtd"
   xmlns:inkscape="http://www.inkscape.org/namespaces/inkscape"
   inkscape:export-ydpi="300.03751"
   inkscape:export-xdpi="300.03751"
   inkscape:export-filename="/home/nijel/weblate/graphics/t-shirt/your-software.png"
   sodipodi:docname="your-software.svg"
   inkscape:version="1.0 (4035a4fb49, 2020-05-01)"
   id="svg5877"
   version="1.1"
   viewBox="0 0 210 80"
   height="80mm"
   width="210mm">
  <defs
     id="defs5871" />
  <sodipodi:namedview
     inkscape:window-maximized="1"
     inkscape:window-y="0"
     inkscape:window-x="0"
     inkscape:window-height="1016"
     inkscape:window-width="1920"
     inkscape:pagecheckerboard="true"
     showgrid="false"
     inkscape:document-rotation="0"
     inkscape:current-layer="layer1"
     inkscape:document-units="mm"
     inkscape:cy="400.625"
     inkscape:cx="145.71429"
     inkscape:zoom="0.35"
     inkscape:pageshadow="2"
     inkscape:pageopacity="0.0"
     borderopacity="1.0"
     bordercolor="#666666"
     pagecolor="#ffffff"
     id="base" />
  <metadata
     id="metadata5874">
    <rdf:RDF>
      <cc:Work
         rdf:about="">
        <dc:format>image/svg+xml</dc:format>
        <dc:type
           rdf:resource="http://purl.org/dc/dcmitype/StillImage" />
        <dc:title></dc:title>
      </cc:Work>
    </rdf:RDF>
  </metadata>
  <g
     id="layer1"
     inkscape:groupmode="layer"
     inkscape:label="Vrstva 1">
    <g
       transform="translate(1.6678107,-0.4699123)"
       id="g6635">
      <path
         id="path4654"
         style="fill:#ffffff;fill-opacity:1;fill-rule:nonzero;stroke:none;stroke-width:0.947566"
         d="M 22.65147,13.142025 18.415837,4.5475786 h 1.923565 l 1.800381,3.960837 c 0.227425,0.511687 0.454832,1.013897 0.672773,1.5161094 0.217944,0.50221 0.454832,1.013897 0.691726,1.535061 h 0.08528 c 0.246363,-0.521164 0.483261,-1.032851 0.720152,-1.535061 0.23688,-0.5022124 0.454832,-1.0044224 0.672773,-1.5161094 l 1.819332,-3.960837 h 1.838282 l -4.21668,8.5944464 v 5.439043 h -1.771952 z" />
      <path
         id="path4656"
         style="fill:#ffffff;fill-opacity:1;fill-rule:nonzero;stroke:none;stroke-width:0.947566"
         d="m 28.678005,13.397869 c 0,-0.862288 0.132662,-1.639295 0.39798,-2.312068 0.265325,-0.682249 0.615918,-1.2507894 1.061276,-1.7245744 0.435882,-0.473784 0.94757,-0.824385 1.525585,-1.070752 0.578019,-0.246362 1.18446,-0.360078 1.828807,-0.360078 0.644347,0 1.250792,0.113699 1.828808,0.360078 0.578018,0.246361 1.089705,0.596968 1.525584,1.070752 0.445359,0.473785 0.79596,1.0423254 1.06128,1.7245744 0.265325,0.672773 0.397976,1.44978 0.397976,2.312068 0,0.862288 -0.132662,1.629818 -0.397976,2.302592 -0.265325,0.672773 -0.615921,1.250791 -1.06128,1.715099 -0.435879,0.454832 -0.947566,0.81491 -1.525584,1.0518 -0.578016,0.246363 -1.184461,0.369552 -1.828808,0.369552 -0.644347,0 -1.250788,-0.123182 -1.828807,-0.369552 -0.578015,-0.236879 -1.089703,-0.596968 -1.525585,-1.0518 -0.445358,-0.464308 -0.795957,-1.042326 -1.061276,-1.715099 -0.265325,-0.672774 -0.39798,-1.440304 -0.39798,-2.302592 z m 1.819331,0 c 0,0.606444 0.0758,1.146558 0.217944,1.629818 0.142143,0.483258 0.341124,0.900191 0.606444,1.25079 0.265326,0.350601 0.578019,0.61592 0.957046,0.814909 0.36955,0.189525 0.777004,0.284272 1.212886,0.284272 0.445358,0 0.852811,-0.09476 1.222363,-0.284272 0.369553,-0.19898 0.682249,-0.464308 0.947569,-0.814909 0.265325,-0.350599 0.464309,-0.767532 0.615921,-1.25079 0.142144,-0.48326 0.208462,-1.023374 0.208462,-1.629818 0,-0.596969 -0.06632,-1.137081 -0.208462,-1.629819 -0.151626,-0.492734 -0.350604,-0.91914 -0.615924,-1.279217 -0.265325,-0.350599 -0.578015,-0.6253954 -0.947569,-0.8149094 -0.369551,-0.198981 -0.777004,-0.293747 -1.222363,-0.293747 -0.435882,0 -0.843335,0.09476 -1.212886,0.293747 -0.379027,0.189525 -0.691726,0.4643104 -0.957045,0.8149094 -0.265326,0.360077 -0.464309,0.786483 -0.606445,1.279217 -0.142144,0.492738 -0.217944,1.03285 -0.217941,1.629819 z" />
      <path
         id="path4658"
         style="fill:#ffffff;fill-opacity:1;fill-rule:nonzero;stroke:none;stroke-width:0.947566"
         d="m 40.892166,8.1862406 h 1.771952 V 14.53495 c 0,0.985472 0.161081,1.69615 0.464308,2.13203 0.303223,0.426406 0.795957,0.644347 1.487683,0.644347 0.540113,0 1.013898,-0.132662 1.43083,-0.41693 0.41693,-0.274796 0.871761,-0.720152 1.364499,-1.336072 V 8.1862406 h 1.753 V 18.581068 h -1.449781 l -0.151599,-1.629816 h -0.06632 c -0.483261,0.568539 -0.994948,1.023374 -1.525587,1.364499 -0.530637,0.350598 -1.165507,0.521161 -1.895136,0.521161 -1.108655,0 -1.914088,-0.341125 -2.425775,-1.032848 -0.502211,-0.682249 -0.758054,-1.69615 -0.758054,-3.03222 z" />
      <path
         id="path4660"
         style="fill:#ffffff;fill-opacity:1;fill-rule:nonzero;stroke:none;stroke-width:0.947566"
         d="m 52.679918,8.1862406 h 1.44978 l 0.151599,1.8761864 h 0.06632 c 0.350601,-0.6538214 0.786483,-1.1749844 1.288694,-1.5540114 0.511687,-0.388504 1.061279,-0.578019 1.658247,-0.578019 0.41693,0 0.786484,0.06632 1.108656,0.208463 l -0.341125,1.544537 c -0.170562,-0.05686 -0.322172,-0.104245 -0.464308,-0.132663 -0.142145,-0.02842 -0.322175,-0.0379 -0.540114,-0.0379 -0.435881,0 -0.900192,0.170563 -1.373977,0.5306404 -0.483261,0.360075 -0.900191,0.975995 -1.250792,1.857234 v 6.680357 h -1.753003 z" />
      <path
         id="path4662"
         style="fill:#ffffff;fill-opacity:1;fill-rule:nonzero;stroke:none;stroke-width:0.947566"
         d="m 1.5964956,60.84263 c 0.1136983,0.02842 0.2463613,0.05686 0.3885033,0.09476 0.1421438,0.0379 0.2747934,0.04738 0.4074525,0.04738 0.5969691,0 1.0802292,-0.208463 1.4592564,-0.625396 0.3790272,-0.416929 0.6727737,-0.957045 0.8907146,-1.591915 L 4.9793028,57.999923 0.8099985,47.576665 h 1.8098573 l 2.1225531,5.761217 c 0.1516257,0.454835 0.3221747,0.928617 0.5022113,1.440304 0.1800433,0.502213 0.3411239,1.004425 0.5022132,1.487685 h 0.085277 C 5.993191,55.792087 6.13533,55.29935 6.2774662,54.787662 6.419611,54.275975 6.5617357,53.792717 6.7038718,53.337882 L 8.5705817,47.576665 H 10.276206 L 6.3627517,58.833784 c -0.1800443,0.511687 -0.3885043,0.985472 -0.6159183,1.43083 -0.2274256,0.435879 -0.5022132,0.824383 -0.8149099,1.137081 -0.3126986,0.322173 -0.6727757,0.578016 -1.0707521,0.767531 -0.3979804,0.180044 -0.8622883,0.274796 -1.3834517,0.274796 -0.2463624,0 -0.464308,-0.01907 -0.6632967,-0.05686 -0.1989811,-0.02843 -0.3885033,-0.08528 -0.5590658,-0.161085 z" />
      <path
         id="path4664"
         style="fill:#ffffff;fill-opacity:1;fill-rule:nonzero;stroke:none;stroke-width:0.947566"
         d="m 11.432257,52.797773 c 0,-0.871764 0.132663,-1.639295 0.39798,-2.321545 0.265325,-0.672772 0.615918,-1.250788 1.061276,-1.715096 0.435883,-0.473785 0.94757,-0.833862 1.525585,-1.070753 0.578019,-0.246363 1.18446,-0.369554 1.828808,-0.369554 0.644346,0 1.250791,0.123181 1.828807,0.369554 0.578018,0.236879 1.089705,0.596968 1.525584,1.070753 0.445359,0.464308 0.79596,1.042324 1.06128,1.715096 0.265325,0.68225 0.397977,1.449781 0.397977,2.321545 0,0.852811 -0.132662,1.620342 -0.397977,2.302592 -0.265325,0.672772 -0.615921,1.241315 -1.06128,1.705623 -0.435879,0.464308 -0.947566,0.814909 -1.525584,1.061277 -0.578016,0.246362 -1.184461,0.360074 -1.828807,0.360074 -0.644348,0 -1.250789,-0.113699 -1.828808,-0.360074 -0.578015,-0.246362 -1.089702,-0.596969 -1.525585,-1.061277 -0.445358,-0.464308 -0.795957,-1.032851 -1.061276,-1.705623 -0.265325,-0.68225 -0.39798,-1.449781 -0.39798,-2.302592 z m 1.819331,0 c 0,0.596968 0.0758,1.137081 0.217944,1.629819 0.142144,0.483258 0.341125,0.90019 0.606444,1.250789 0.265325,0.350601 0.578019,0.61592 0.947569,0.805433 0.379027,0.19898 0.777008,0.293745 1.222364,0.293745 0.445357,0 0.852811,-0.09476 1.222362,-0.293745 0.369553,-0.1895 0.68225,-0.454832 0.947569,-0.805433 0.265325,-0.350599 0.464308,-0.767531 0.606445,-1.250789 0.142144,-0.492738 0.217944,-1.032851 0.217944,-1.629819 0,-0.596968 -0.0758,-1.146558 -0.217944,-1.639295 -0.142145,-0.483258 -0.341125,-0.909665 -0.606445,-1.269742 -0.265325,-0.3506 -0.578016,-0.625394 -0.947569,-0.824385 -0.369551,-0.189526 -0.777005,-0.28427 -1.222362,-0.28427 -0.445356,0 -0.843337,0.09476 -1.222364,0.28427 -0.36955,0.198981 -0.682249,0.473785 -0.947569,0.824385 -0.265325,0.360077 -0.464308,0.786484 -0.606444,1.269742 -0.142145,0.492737 -0.217944,1.042327 -0.217944,1.639295 z" />
      <path
         id="path4666"
         style="fill:#ffffff;fill-opacity:1;fill-rule:nonzero;stroke:none;stroke-width:0.947566"
         d="m 23.646418,47.576669 h 1.771953 v 6.358185 c 0,0.985472 0.151598,1.686674 0.464308,2.122554 0.303222,0.435882 0.795956,0.653822 1.487682,0.653822 0.540113,0 1.013898,-0.142143 1.430827,-0.416929 0.407457,-0.274796 0.871765,-0.720151 1.364499,-1.336072 v -7.38156 h 1.753003 v 10.394827 h -1.44978 l -0.151599,-1.62034 h -0.06632 c -0.483258,0.568539 -0.994946,1.023371 -1.525585,1.364496 -0.540114,0.341125 -1.165508,0.511687 -1.895136,0.511687 -1.108655,0 -1.923565,-0.341125 -2.425775,-1.023373 -0.502211,-0.682247 -0.758054,-1.696148 -0.758054,-3.032218 z" />
      <path
         id="path4668"
         style="fill:#ffffff;fill-opacity:1;fill-rule:nonzero;stroke:none;stroke-width:0.947566"
         d="m 35.424694,47.576669 h 1.459256 l 0.1516,1.885662 h 0.05686 c 0.360074,-0.653824 0.795957,-1.174984 1.298167,-1.563487 0.502211,-0.379028 1.061277,-0.578019 1.658245,-0.578019 0.416933,0 0.786483,0.0758 1.108656,0.217943 l -0.341125,1.535061 c -0.170563,-0.05686 -0.322172,-0.09476 -0.473785,-0.12318 -0.142144,-0.02842 -0.312696,-0.04738 -0.530637,-0.04738 -0.445359,0 -0.900191,0.180043 -1.383452,0.540115 -0.473784,0.350599 -0.890713,0.975996 -1.250788,1.857233 v 6.670882 h -1.753002 z" />
      <path
         id="path4670"
         style="fill:#ffffff;fill-opacity:1;fill-rule:nonzero;stroke:none;stroke-width:0.947566"
         d="m 23.570611,38.432633 c 0.852811,0.663297 1.696146,1.18446 2.530008,1.55401 0.83386,0.37903 1.73405,0.559066 2.710045,0.559066 1.023375,0 1.78143,-0.208462 2.274167,-0.63487 0.483258,-0.41693 0.729628,-0.96652 0.729628,-1.629819 0,-0.388501 -0.113699,-0.729625 -0.350601,-1.023371 -0.227426,-0.293749 -0.540117,-0.559066 -0.919144,-0.786484 -0.388503,-0.23688 -0.824383,-0.445358 -1.307643,-0.63487 -0.492735,-0.198981 -0.975996,-0.39798 -1.468733,-0.596968 -0.615918,-0.236881 -1.241312,-0.502211 -1.885659,-0.81491 -0.644347,-0.303222 -1.21289,-0.672773 -1.7151,-1.108655 -0.492735,-0.445358 -0.909665,-0.947569 -1.231839,-1.525585 -0.312696,-0.578018 -0.473785,-1.260268 -0.473785,-2.056225 0,-1.667721 0.615921,-3.03222 1.84776,-4.08402 1.231839,-1.051802 2.909036,-1.572966 5.041063,-1.572966 1.307646,0 2.48263,0.227426 3.543907,0.691726 1.051803,0.454835 1.961467,0.985471 2.728997,1.572963 l -2.037271,2.700572 c -0.672774,-0.492735 -1.345546,-0.881238 -2.027796,-1.174984 -0.672776,-0.293749 -1.392928,-0.445359 -2.132029,-0.445359 -0.947569,0 -1.648771,0.198981 -2.094127,0.596969 -0.454832,0.397979 -0.68225,0.890714 -0.68225,1.478206 0,0.360077 0.113699,0.672776 0.331649,0.947569 0.217944,0.265325 0.50221,0.511688 0.862287,0.729628 0.360075,0.217944 0.777005,0.41693 1.25079,0.596968 0.473784,0.180045 0.975995,0.360077 1.487682,0.540116 0.634873,0.227426 1.279217,0.492735 1.923565,0.786481 0.644346,0.293746 1.222365,0.663299 1.753002,1.099179 0.521163,0.435882 0.947569,0.966521 1.269742,1.601393 0.322174,0.625394 0.48326,1.373974 0.48326,2.245736 0,0.824386 -0.161081,1.58244 -0.48326,2.293115 -0.322173,0.701202 -0.786481,1.31712 -1.402402,1.84776 -0.615919,0.521163 -1.392925,0.938093 -2.312065,1.250792 -0.92862,0.303219 -1.98042,0.464308 -3.155404,0.464308 -1.307644,0 -2.605814,-0.255844 -3.875556,-0.758057 -1.269741,-0.492734 -2.359446,-1.118128 -3.288063,-1.86671 z" />
      <path
         id="path4672"
         style="fill:#ffffff;fill-opacity:1;fill-rule:nonzero;stroke:none;stroke-width:0.947566"
         d="m 38.741184,34.007487 c 0,-1.572963 0.246361,-2.965891 0.729628,-4.197729 0.492734,-1.23184 1.146558,-2.274166 1.980417,-3.117502 0.833862,-0.852812 1.790904,-1.497158 2.871133,-1.942514 1.08023,-0.454835 2.207835,-0.672776 3.382822,-0.672776 1.18446,0 2.321542,0.217944 3.411247,0.672776 1.089702,0.445356 2.046748,1.089702 2.871131,1.942514 0.814909,0.843336 1.478209,1.885662 1.980419,3.117502 0.502214,1.231838 0.748582,2.624766 0.748582,4.197729 0,1.563488 -0.246363,2.956413 -0.748582,4.188252 -0.50221,1.231841 -1.16551,2.274165 -1.980419,3.117501 -0.824383,0.852812 -1.781429,1.497159 -2.871131,1.933041 -1.089705,0.435882 -2.226787,0.653823 -3.411247,0.653823 -1.174987,0 -2.302592,-0.217943 -3.382822,-0.653823 C 43.242133,42.810399 42.285091,42.166052 41.451229,41.31324 40.61737,40.469904 39.963546,39.42758 39.470812,38.195739 38.987551,36.9639 38.741184,35.570975 38.741184,34.007487 Z m 4.538854,0 c 0,1.895137 0.397978,3.420724 1.174984,4.557805 0.786481,1.146558 1.86671,1.715101 3.250162,1.715101 1.392925,0 2.482627,-0.568543 3.278587,-1.715101 0.795957,-1.137081 1.193936,-2.662668 1.193936,-4.557805 0,-1.923564 -0.397979,-3.458625 -1.193936,-4.605183 -0.79596,-1.137084 -1.885662,-1.715099 -3.278587,-1.715099 -1.383452,0 -2.463681,0.578015 -3.250162,1.715099 -0.777006,1.146558 -1.174984,2.681619 -1.174984,4.605183 z" />
      <path
         id="path4674"
         style="fill:#ffffff;fill-opacity:1;fill-rule:nonzero;stroke:none;stroke-width:0.947566"
         d="m 82.272487,43.208379 c -0.511687,0.170562 -1.089703,0.331648 -1.743524,0.473784 -0.653823,0.142144 -1.373972,0.217944 -2.141502,0.217944 -1.080229,0 -1.989896,-0.170562 -2.747954,-0.502214 -0.758057,-0.331651 -1.373972,-0.805436 -1.847756,-1.402404 -0.473788,-0.606441 -0.824386,-1.326596 -1.04233,-2.160455 -0.217944,-0.833859 -0.331643,-1.762479 -0.331643,-2.785853 v -9.011375 h -6.272907 v 15.39799 H 61.719726 V 28.037806 H 59.180241 V 24.73079 l 2.539485,-0.198981 v -1.961467 c 0,-0.975995 0.113699,-1.876186 0.350601,-2.710045 0.227425,-0.833862 0.596968,-1.554014 1.118129,-2.160458 0.511687,-0.596969 1.156033,-1.070751 1.942517,-1.402402 0.777007,-0.331648 1.73405,-0.502211 2.861657,-0.502211 0.672773,0 1.307645,0.06632 1.904613,0.189525 0.606444,0.132663 1.127607,0.284271 1.563487,0.464309 l -0.843336,3.31649 c -0.701199,-0.312699 -1.392925,-0.464311 -2.08465,-0.464311 -1.591916,0 -2.387873,1.061279 -2.387873,3.193309 v 2.037271 h 6.509795 l 0.540117,-5.154773 H 76.8524 v 5.154773 h 4.842071 v 3.506005 H 76.8524 V 37.0492 c 0,2.198361 0.89071,3.307016 2.691089,3.307016 0.331651,0 0.672776,-0.0379 1.023374,-0.1137 0.341125,-0.0758 0.653821,-0.180043 0.938093,-0.312695 z" />
      <path
         id="path4676"
         style="fill:#ffffff;fill-opacity:1;fill-rule:nonzero;stroke:none;stroke-width:0.947566"
         d="m 83.779119,24.531801 h 4.46305 l 2.274159,9.816811 c 0.198986,0.900191 0.379033,1.800382 0.521174,2.700569 0.132657,0.890714 0.293747,1.800382 0.473775,2.728998 h 0.161079 c 0.180047,-0.928616 0.360085,-1.838284 0.559071,-2.728998 0.189502,-0.900187 0.397981,-1.800378 0.634873,-2.700569 l 2.463678,-9.816811 h 4.036637 l 2.501585,9.816811 c 0.22742,0.900191 0.44535,1.800382 0.65382,2.700569 0.20846,0.890714 0.40745,1.800382 0.61591,2.728998 h 0.15163 c 0.18004,-0.928616 0.35059,-1.838284 0.5022,-2.728998 0.15163,-0.900187 0.32218,-1.800378 0.50221,-2.700569 l 2.27417,-9.816811 h 4.15035 l -4.80417,18.903995 h -5.27796 l -2.188875,-8.81239 c -0.208464,-0.900191 -0.397986,-1.790905 -0.578023,-2.681619 -0.180038,-0.881238 -0.379024,-1.828808 -0.57801,-2.823755 h -0.161079 c -0.180047,0.994947 -0.350601,1.951991 -0.530639,2.842707 -0.180047,0.900191 -0.379033,1.800381 -0.578019,2.700569 l -2.160466,8.774488 h -5.078968 z" />
      <path
         id="path4678"
         style="fill:#ffffff;fill-opacity:1;fill-rule:nonzero;stroke:none;stroke-width:0.947566"
         d="m 113.26745,38.356827 c 0,-2.027798 0.88124,-3.591285 2.65319,-4.699941 1.77195,-1.099178 4.59571,-1.876185 8.47127,-2.312067 0,-0.483261 -0.0663,-0.957046 -0.19899,-1.402402 -0.12318,-0.445358 -0.32217,-0.843335 -0.59697,-1.193936 -0.26532,-0.341125 -0.61592,-0.615921 -1.03284,-0.805433 -0.42641,-0.189499 -0.95706,-0.293747 -1.60141,-0.293747 -0.94756,0 -1.8667,0.180045 -2.74794,0.540114 -0.89072,0.360077 -1.74353,0.795957 -2.56792,1.307644 l -1.61086,-2.956412 c 1.0518,-0.672777 2.22679,-1.250792 3.51547,-1.734053 1.29818,-0.492734 2.71006,-0.729628 4.21669,-0.729628 2.38788,0 4.15983,0.691726 5.31587,2.094127 1.15602,1.402401 1.73404,3.420723 1.73404,6.064439 v 11.200264 h -3.61971 l -0.35061,-2.075177 h -0.1137 c -0.84333,0.710678 -1.753,1.31712 -2.71004,1.800381 -0.96652,0.492734 -2.00885,0.739104 -3.13645,0.739104 -1.66772,0 -3.02274,-0.511687 -4.06507,-1.525587 -1.04233,-1.013898 -1.55402,-2.349968 -1.55402,-4.01769 z m 4.31143,-0.350601 c 0,0.843337 0.24636,1.459257 0.74859,1.84776 0.5022,0.388501 1.14655,0.578016 1.94251,0.578016 0.76753,0 1.47821,-0.180044 2.11307,-0.540114 0.64435,-0.360077 1.30765,-0.871764 2.00886,-1.535061 v -4.235632 c -1.2887,0.151626 -2.36892,0.360077 -3.24069,0.615921 -0.87176,0.255844 -1.57296,0.540113 -2.09413,0.862285 -0.53064,0.322175 -0.90967,0.691726 -1.13708,1.099182 -0.22743,0.407453 -0.34113,0.843335 -0.34113,1.307643 z" />
      <path
         id="path4680"
         style="fill:#ffffff;fill-opacity:1;fill-rule:nonzero;stroke:none;stroke-width:0.947566"
         d="m 134.19924,24.531801 h 3.65762 l 0.31269,3.354391 h 0.15161 c 0.66329,-1.231838 1.4782,-2.179407 2.42577,-2.833228 0.94757,-0.653823 1.92356,-0.975998 2.92798,-0.975998 0.9002,0 1.61088,0.123181 2.15099,0.37903 l -0.76752,3.847126 c -0.33166,-0.09476 -0.64435,-0.180043 -0.92862,-0.227426 -0.2748,-0.04738 -0.6254,-0.0758 -1.03285,-0.0758 -0.74858,0 -1.52559,0.284269 -2.34998,0.862285 -0.82437,0.578018 -1.52558,1.591917 -2.11307,3.022747 v 11.550861 h -4.43462 z" />
      <path
         id="path4682"
         style="fill:#ffffff;fill-opacity:1;fill-rule:nonzero;stroke:none;stroke-width:0.947566"
         d="m 146.94403,34.007487 c 0,-1.544537 0.24637,-2.927988 0.72963,-4.159827 0.49274,-1.231839 1.13708,-2.274166 1.94252,-3.117501 0.81491,-0.852812 1.74352,-1.506632 2.79532,-1.961467 1.05181,-0.464309 2.13203,-0.691726 3.23122,-0.691726 1.28869,0 2.4163,0.217944 3.39229,0.653824 0.96652,0.435881 1.78143,1.0518 2.44473,1.847759 0.65382,0.795957 1.14655,1.743526 1.47821,2.842705 0.33165,1.108655 0.5022,2.312068 0.5022,3.619712 0,0.871765 -0.0663,1.56349 -0.19897,2.075177 h -12.00569 c 0.20846,1.724574 0.80542,3.041694 1.7909,3.970313 0.98547,0.91914 2.25521,1.383448 3.79027,1.383448 0.82438,0 1.58244,-0.123181 2.29312,-0.360074 0.7012,-0.246362 1.4024,-0.587495 2.09412,-1.023374 l 1.50664,2.7669 c -0.90019,0.596968 -1.90461,1.080226 -3.0038,1.46873 -1.10864,0.379027 -2.26468,0.578018 -3.46809,0.578018 -1.30764,0 -2.53001,-0.227425 -3.65762,-0.672775 -1.12761,-0.454833 -2.11307,-1.09918 -2.96588,-1.951992 -0.84334,-0.843335 -1.50664,-1.876186 -1.98042,-3.098548 -0.47379,-1.212889 -0.71068,-2.605814 -0.71068,-4.169302 z m 12.66901,-1.696147 c 0,-1.516111 -0.32218,-2.691098 -0.94758,-3.543909 -0.6254,-0.843336 -1.60139,-1.269742 -2.90904,-1.269742 -1.1276,0 -2.11308,0.407457 -2.96588,1.212889 -0.84335,0.805433 -1.3645,2.008846 -1.57297,3.600762 z" />
      <path
         id="path4684"
         style="fill:#ffffff;fill-opacity:1;fill-rule:nonzero;stroke:none;stroke-width:0.947566"
         d="m 166.69136,48.126258 c 1.08024,-0.483259 1.92357,-1.127605 2.53949,-1.923562 0.61592,-0.79596 0.92862,-1.715099 0.92862,-2.7669 -0.0852,0.02842 -0.20846,0.0379 -0.38851,0.0379 -0.61592,0 -1.14655,-0.189526 -1.60139,-0.559066 -0.44535,-0.369551 -0.67277,-0.91914 -0.67277,-1.639293 0,-0.691724 0.23688,-1.231841 0.69172,-1.629817 0.46432,-0.397981 1.0139,-0.596969 1.65825,-0.596969 0.82439,0 1.46873,0.331648 1.94251,0.994945 0.47379,0.672776 0.71068,1.58244 0.71068,2.738474 0,1.667721 -0.44536,3.117501 -1.34554,4.34934 -0.9002,1.231839 -2.13203,2.179409 -3.69553,2.842705 z" />
      <path
         id="path4686"
         style="fill:#ffffff;fill-opacity:1;fill-rule:nonzero;stroke:none;stroke-width:0.947566"
         d="m 44.919331,41.284814 h 5.656984 v 21.291865 c 0,0.587495 0.104244,0.994949 0.322175,1.231842 0.217944,0.227425 0.445355,0.341125 0.672773,0.341125 h 0.331648 c 0.08528,0 0.208463,-0.02841 0.369554,-0.0758 l 0.691723,4.19773 c -0.312696,0.123182 -0.701199,0.236881 -1.174984,0.322172 -0.473784,0.09476 -1.032851,0.142145 -1.677197,0.142145 -0.975996,0 -1.800382,-0.161081 -2.463678,-0.464309 -0.663297,-0.312697 -1.203413,-0.739104 -1.60139,-1.288694 -0.388503,-0.549588 -0.68225,-1.222362 -0.862288,-2.008845 -0.180045,-0.777007 -0.265325,-1.658245 -0.265325,-2.63424 z" />
      <path
         id="path4688"
         style="fill:#ffffff;fill-opacity:1;fill-rule:nonzero;stroke:none;stroke-width:0.947566"
         d="m 55.228877,62.955709 c 0,-1.999372 0.852812,-3.56286 2.539488,-4.690464 1.696148,-1.137085 4.434621,-1.885662 8.205943,-2.274166 -0.05686,-0.843336 -0.312698,-1.525585 -0.777006,-2.018322 -0.454832,-0.502211 -1.203411,-0.758054 -2.226785,-0.758054 -0.824385,0 -1.639295,0.16108 -2.46368,0.464308 -0.824383,0.312698 -1.696148,0.729628 -2.615288,1.269741 l -2.008848,-3.733419 c 1.231841,-0.739105 2.520535,-1.345547 3.875557,-1.809858 1.345547,-0.454832 2.776377,-0.691723 4.292486,-0.691723 2.463678,0 4.339864,0.701199 5.638034,2.103601 1.288694,1.392928 1.942514,3.572336 1.942514,6.519272 v 10.934944 h -4.624133 l -0.41693,-1.961468 H 66.47653 c -0.824383,0.710676 -1.696147,1.298168 -2.605814,1.743526 -0.909665,0.454833 -1.904612,0.68225 -2.984841,0.68225 -0.871762,0 -1.648769,-0.151599 -2.340494,-0.445359 -0.691724,-0.293746 -1.288692,-0.710675 -1.771953,-1.231839 -0.492737,-0.530636 -0.871767,-1.137081 -1.137084,-1.828807 -0.265325,-0.691726 -0.407456,-1.449779 -0.407456,-2.274163 z m 5.39167,-0.416932 c 0,0.615921 0.19898,1.070753 0.596968,1.364499 0.397977,0.293746 0.928617,0.435882 1.601389,0.435882 0.6633,0 1.23184,-0.132663 1.686675,-0.416929 0.464308,-0.284271 0.957042,-0.68225 1.468729,-1.193937 V 59.3739 c -2.027795,0.284269 -3.430197,0.701199 -4.197727,1.231839 -0.767531,0.540113 -1.156034,1.18446 -1.156034,1.933038 z" />
      <path
         id="path4690"
         style="fill:#ffffff;fill-opacity:1;fill-rule:nonzero;stroke:none;stroke-width:0.947566"
         d="m 76.482846,49.178061 h 4.614657 l 0.388506,2.425775 h 0.151599 c 0.824383,-0.76753 1.724576,-1.440303 2.691096,-2.018322 0.97599,-0.578015 2.122554,-0.871762 3.430197,-0.871762 2.075174,0 3.581803,0.68225 4.519897,2.037273 0.938093,1.364498 1.411878,3.25016 1.411878,5.66646 V 68.271569 H 88.024225 V 57.147113 c 0,-1.383452 -0.180047,-2.340495 -0.559071,-2.852181 -0.369549,-0.511687 -0.966516,-0.767531 -1.781427,-0.767531 -0.72015,0 -1.336075,0.161081 -1.847763,0.483259 -0.521161,0.322174 -1.080229,0.777006 -1.696143,1.364498 v 12.896411 h -5.656986 z" />
      <path
         id="path4692"
         style="fill:#ffffff;fill-opacity:1;fill-rule:nonzero;stroke:none;stroke-width:0.947566"
         d="m 101.96296,70.659441 c 0,0.720152 0.38851,1.260266 1.15604,1.629819 0.76753,0.379027 1.7909,0.559066 3.07959,0.559066 1.27921,0 2.33102,-0.217944 3.1554,-0.672776 0.82439,-0.445356 1.23183,-1.004422 1.23183,-1.677194 0,-0.587495 -0.25584,-0.985473 -0.74857,-1.184463 -0.50222,-0.208462 -1.23183,-0.312696 -2.17941,-0.312696 h -1.96146 c -0.6633,0 -1.20341,-0.01907 -1.62035,-0.05686 -0.40745,-0.0379 -0.76753,-0.09476 -1.07074,-0.170563 -0.7012,0.615921 -1.04233,1.241315 -1.04233,1.885662 z m -4.662033,0.881239 c 0,-1.535062 0.919136,-2.823755 2.738463,-3.84713 v -0.151599 c -0.511685,-0.341125 -0.938085,-0.758054 -1.269735,-1.269742 -0.33165,-0.521163 -0.502212,-1.174986 -0.502212,-1.970942 0,-0.691726 0.208462,-1.345547 0.615922,-1.98042 0.40746,-0.625395 0.91914,-1.156032 1.535055,-1.591914 v -0.16108 c -0.663295,-0.454835 -1.260265,-1.118132 -1.781425,-1.98042 -0.530641,-0.862289 -0.795956,-1.857233 -0.795956,-2.984842 0,-1.156033 0.217944,-2.160455 0.653826,-3.022743 0.43587,-0.852812 1.02337,-1.572964 1.752995,-2.150983 0.72962,-0.578015 1.57296,-1.004421 2.52053,-1.288691 0.94757,-0.284272 1.94251,-0.426405 2.96589,-0.426405 1.12761,0 2.11308,0.151599 2.96589,0.464308 h 6.96463 V 53.3 h -3.0417 c 0.18005,0.274796 0.33165,0.63487 0.44536,1.070753 0.1137,0.435882 0.17057,0.909667 0.17057,1.430827 0,1.099181 -0.18954,2.056225 -0.57802,2.861657 -0.37904,0.81491 -0.91915,1.47821 -1.59193,2.008846 -0.68224,0.521164 -1.4782,0.909667 -2.38787,1.16551 -0.90966,0.265326 -1.89512,0.388505 -2.94693,0.388505 -0.74858,0 -1.51611,-0.123182 -2.31207,-0.388505 -0.25584,0.208463 -0.43588,0.41693 -0.54011,0.615919 -0.0947,0.208462 -0.1516,0.483261 -0.1516,0.81491 0,0.48326 0.21794,0.843335 0.63486,1.070752 0.42641,0.236907 1.17499,0.350601 2.25522,0.350601 h 3.0796 c 2.35945,0 4.15982,0.379027 5.41061,1.137081 1.24132,0.758055 1.86671,1.989896 1.86671,3.71447 0,0.994948 -0.25585,1.914088 -0.75805,2.74795 -0.49273,0.833859 -1.21288,1.554011 -2.13203,2.160456 -0.92862,0.596968 -2.03727,1.080229 -3.34491,1.421354 -1.31713,0.350598 -2.78585,0.52116 -4.43463,0.52116 -1.12761,0 -2.16993,-0.09476 -3.13645,-0.293743 -0.95704,-0.189526 -1.80985,-0.473787 -2.539475,-0.862288 -0.72963,-0.388503 -1.298174,-0.881241 -1.715103,-1.497159 -0.407465,-0.615937 -0.615925,-1.355041 -0.615925,-2.198376 z m 8.433353,-12.735323 c 0.74858,0 1.3645,-0.265325 1.86671,-0.795956 0.50221,-0.521163 0.74858,-1.326597 0.74858,-2.406826 0,-0.994947 -0.24636,-1.762478 -0.74858,-2.283638 -0.50221,-0.530641 -1.11813,-0.79596 -1.86671,-0.79596 -0.74858,0 -1.36449,0.255843 -1.86671,0.777006 -0.50222,0.511688 -0.74857,1.279218 -0.74857,2.302592 0,1.080229 0.24635,1.885663 0.74857,2.406826 0.50222,0.530637 1.11813,0.795956 1.86671,0.795956 z" />
      <path
         id="path4694"
         style="fill:#ffffff;fill-opacity:1;fill-rule:nonzero;stroke:none;stroke-width:0.947566"
         d="m 118.8581,49.178061 h 5.65698 v 11.124456 c 0,1.383448 0.19899,2.331018 0.57803,2.852181 0.3885,0.511687 0.99495,0.767531 1.80985,0.767531 0.72016,0 1.3266,-0.170563 1.80986,-0.502212 0.49273,-0.33165 1.0139,-0.871764 1.58244,-1.620341 V 49.178061 h 5.65699 v 19.093508 h -4.62414 l -0.41693,-2.653194 h -0.1137 c -0.82439,0.966519 -1.70563,1.73405 -2.64372,2.283643 -0.9381,0.549589 -2.05623,0.833859 -3.36387,0.833859 -2.08465,0 -3.59128,-0.68225 -4.5199,-2.046749 -0.93809,-1.355022 -1.41189,-3.240684 -1.41189,-5.656984 z" />
      <path
         id="path4696"
         style="fill:#ffffff;fill-opacity:1;fill-rule:nonzero;stroke:none;stroke-width:0.947566"
         d="m 140.22578,62.955709 c 0,-1.999372 0.84334,-3.56286 2.53948,-4.690464 1.69615,-1.137085 4.42515,-1.885662 8.19646,-2.274166 -0.0474,-0.843336 -0.30321,-1.525585 -0.76753,-2.018322 -0.4643,-0.502211 -1.20341,-0.758054 -2.23625,-0.758054 -0.81491,0 -1.6393,0.16108 -2.46368,0.464308 -0.81492,0.312698 -1.68667,0.729628 -2.61529,1.269741 l -1.99937,-3.733419 c 1.23184,-0.739105 2.52052,-1.345547 3.86608,-1.809858 1.34554,-0.454832 2.77637,-0.691723 4.29248,-0.691723 2.46367,0 4.33986,0.701199 5.63804,2.103601 1.29817,1.392928 1.94251,3.572336 1.94251,6.519272 v 10.934944 h -4.61466 l -0.4264,-1.961468 h -0.1137 c -0.82439,0.710676 -1.68667,1.298168 -2.59634,1.743526 -0.90966,0.454833 -1.90461,0.68225 -2.98484,0.68225 -0.87177,0 -1.65825,-0.151599 -2.34997,-0.445359 -0.69173,-0.293746 -1.27922,-0.710675 -1.77195,-1.231839 -0.48326,-0.530636 -0.86228,-1.137081 -1.13709,-1.828807 -0.26533,-0.691726 -0.39797,-1.449779 -0.39797,-2.274163 z m 5.39166,-0.416932 c 0,0.615921 0.19897,1.070753 0.59697,1.364499 0.3885,0.293746 0.92862,0.435882 1.59191,0.435882 0.67278,0 1.23184,-0.132663 1.69615,-0.416929 0.4643,-0.284271 0.94757,-0.68225 1.45925,-1.193937 V 59.3739 c -2.02779,0.284269 -3.42071,0.701199 -4.19772,1.231839 -0.76753,0.540113 -1.14656,1.18446 -1.14656,1.933038 z" />
      <path
         id="path4698"
         style="fill:#ffffff;fill-opacity:1;fill-rule:nonzero;stroke:none;stroke-width:0.947566"
         d="m 164.93836,70.659441 c 0,0.720152 0.37903,1.260266 1.15604,1.629819 0.76753,0.379027 1.79091,0.559066 3.07959,0.559066 1.27922,0 2.33103,-0.217944 3.15541,-0.672776 0.81491,-0.445356 1.23183,-1.004422 1.23183,-1.677194 0,-0.587495 -0.25584,-0.985473 -0.74857,-1.184463 -0.50222,-0.208462 -1.23184,-0.312696 -2.17941,-0.312696 h -1.96146 c -0.67277,0 -1.20342,-0.01907 -1.62035,-0.05686 -0.40746,-0.0379 -0.76753,-0.09476 -1.08023,-0.170563 -0.69172,0.615921 -1.03285,1.241315 -1.03285,1.885662 z m -4.66204,0.881239 c 0,-1.535062 0.90967,-2.823755 2.73848,-3.84713 v -0.151599 c -0.51169,-0.341125 -0.93809,-0.758054 -1.26974,-1.269742 -0.34112,-0.521163 -0.50221,-1.174986 -0.50221,-1.970942 0,-0.691726 0.19897,-1.345547 0.61591,-1.98042 0.40746,-0.625395 0.91915,-1.156032 1.53506,-1.591914 v -0.16108 c -0.66329,-0.454835 -1.26026,-1.118132 -1.7909,-1.98042 -0.52116,-0.862289 -0.78648,-1.857233 -0.78648,-2.984842 0,-1.156033 0.21795,-2.160455 0.65383,-3.022743 0.43587,-0.852812 1.02337,-1.572964 1.753,-2.150983 0.72961,-0.578015 1.57296,-1.004421 2.52053,-1.288691 0.94756,-0.284272 1.94251,-0.426405 2.96589,-0.426405 1.1276,0 2.11307,0.151599 2.96589,0.464308 h 6.96463 V 53.3 h -3.0417 c 0.18005,0.274796 0.33165,0.63487 0.44536,1.070753 0.1137,0.435882 0.17056,0.909667 0.17056,1.430827 0,1.099181 -0.18953,2.056225 -0.57802,2.861657 -0.3885,0.81491 -0.91914,1.47821 -1.59191,2.008846 -0.68225,0.521164 -1.47822,0.909667 -2.38788,1.16551 -0.90966,0.265326 -1.89513,0.388505 -2.94693,0.388505 -0.74859,0 -1.51612,-0.123182 -2.31207,-0.388505 -0.25584,0.208463 -0.43588,0.41693 -0.54012,0.615919 -0.10421,0.208462 -0.15159,0.483261 -0.15159,0.81491 0,0.48326 0.20846,0.843335 0.63486,1.070752 0.42641,0.236907 1.175,0.350601 2.25522,0.350601 h 3.0796 c 2.35945,0 4.15982,0.379027 5.40114,1.137081 1.25078,0.758055 1.86671,1.989896 1.86671,3.71447 0,0.994948 -0.24636,1.914088 -0.74858,2.74795 -0.50221,0.833859 -1.21289,1.554011 -2.13203,2.160456 -0.92861,0.596968 -2.03727,1.080229 -3.3544,1.421354 -1.30764,0.350598 -2.77637,0.52116 -4.42513,0.52116 -1.12762,0 -2.16995,-0.09476 -3.13646,-0.293743 -0.95704,-0.189526 -1.80985,-0.473787 -2.53949,-0.862288 -0.72963,-0.388503 -1.29816,-0.881241 -1.71509,-1.497159 -0.40747,-0.615937 -0.61594,-1.355041 -0.61594,-2.198376 z m 8.43337,-12.735323 c 0.7391,0 1.3645,-0.265325 1.86671,-0.795956 0.50221,-0.521163 0.74858,-1.326597 0.74858,-2.406826 0,-0.994947 -0.24637,-1.762478 -0.74858,-2.283638 -0.50221,-0.530641 -1.12761,-0.79596 -1.86671,-0.79596 -0.74859,0 -1.3645,0.255843 -1.86671,0.777006 -0.50222,0.511688 -0.74858,1.279218 -0.74858,2.302592 0,1.080229 0.24636,1.885663 0.74858,2.406826 0.50221,0.530637 1.11812,0.795956 1.86671,0.795956 z" />
      <path
         id="path4700"
         style="fill:#ffffff;fill-opacity:1;fill-rule:nonzero;stroke:none;stroke-width:0.947566"
         d="m 180.22265,58.720077 c 0,-1.535062 0.25584,-2.927986 0.76753,-4.169302 0.51169,-1.250792 1.18445,-2.302592 2.01832,-3.155404 0.83386,-0.862287 1.7909,-1.525585 2.87114,-1.989896 1.07074,-0.454832 2.18888,-0.691723 3.34491,-0.691723 1.36449,0 2.54896,0.236881 3.56286,0.691723 1.01389,0.464311 1.85723,1.108656 2.53948,1.923566 0.68225,0.824385 1.18446,1.790904 1.51611,2.909035 0.34112,1.118132 0.50221,2.331018 0.50221,3.638665 0,0.511687 -0.0191,0.985472 -0.0758,1.402401 -0.0474,0.426406 -0.10421,0.748579 -0.15159,0.985472 h -11.43716 c 0.25585,1.459254 0.83386,2.520533 1.7151,3.174354 0.89071,0.653823 1.97094,0.985471 3.25016,0.985471 1.3645,0 2.73848,-0.426406 4.12192,-1.269741 l 1.88567,3.420723 c -0.976,0.663297 -2.05623,1.193936 -3.25016,1.58244 -1.19395,0.379027 -2.36892,0.578016 -3.52496,0.578016 -1.35503,0 -2.62476,-0.227426 -3.80923,-0.68225 -1.18445,-0.445358 -2.20783,-1.099179 -3.0796,-1.961467 -0.87176,-0.852811 -1.55401,-1.904612 -2.03727,-3.136451 -0.49274,-1.231841 -0.72962,-2.643716 -0.72962,-4.235632 z m 12.30891,-1.961467 c 0,-1.09918 -0.2369,-1.99937 -0.72962,-2.691096 -0.48327,-0.691726 -1.30765,-1.042324 -2.46368,-1.042324 -0.89072,0 -1.68668,0.30322 -2.36892,0.909664 -0.67278,0.596969 -1.11814,1.544538 -1.32661,2.823756 z" />
      <path
         id="path4702"
         style="fill:#ffffff;fill-opacity:1;fill-rule:nonzero;stroke:none;stroke-width:0.947566"
         d="m 201.27762,66.348003 c 0,-0.748577 0.21794,-1.345545 0.67278,-1.790904 0.44536,-0.454832 0.99495,-0.672773 1.62981,-0.672773 0.61592,0 1.15604,0.217944 1.6014,0.672773 0.44535,0.445359 0.67277,1.042327 0.67277,1.790904 0,0.691726 -0.22743,1.260266 -0.67277,1.705624 -0.44536,0.454833 -0.98548,0.68225 -1.6014,0.68225 -0.63486,0 -1.18445,-0.227426 -1.62981,-0.68225 -0.45484,-0.445358 -0.67278,-1.013898 -0.67278,-1.705624 z" />
    </g>
  </g>
</svg>
