<?xml version="1.0" encoding="UTF-8" standalone="no"?>
<!DOCTYPE svg PUBLIC "-//W3C//DTD SVG 1.1//EN" "http://www.w3.org/Graphics/SVG/1.1/DTD/svg11.dtd">
<svg width="100%" height="100%" viewBox="0 0 884 259" version="1.1" xmlns="http://www.w3.org/2000/svg" xmlns:xlink="http://www.w3.org/1999/xlink" xml:space="preserve" xmlns:serif="http://www.serif.com/" style="fill-rule:evenodd;clip-rule:evenodd;stroke-linejoin:round;stroke-miterlimit:1.41421;">
    <g transform="matrix(1,0,0,1,-10988,-936)">
        <g transform="matrix(1,0,0,1,-0.648294,0)">
            <g id="Black-Landscape" transform="matrix(0.481327,0,0,0.481327,10765.3,354.887)">
                <g transform="matrix(2.07759,0,0,2.07759,-22364.5,-737.309)">
                    <path d="M11162.4,936.381L11162.8,936.383C11174.6,936.513 11186.3,940.155 11196.3,946.515C11223.6,963.834 11237.1,997.585 11237.4,1030.72C11237.5,1031.11 11237.4,1031.5 11237.4,1031.89L11237.6,1031.89C11237.5,1066.91 11229.1,1102.42 11211.4,1132.23C11206.3,1132.2 11201.2,1131.16 11196.5,1129.08C11185.7,1124.39 11176.2,1115.54 11168.5,1103.56C11170.7,1099.65 11172.7,1095.6 11174.5,1091.49C11182.2,1073.45 11185.9,1053.7 11186.2,1034.09C11186.1,1033.7 11186.1,1033.31 11186.1,1032.92L11186.1,1031.92C11186.1,1024.23 11184.9,1016.44 11182.2,1009.18C11179.2,1000.83 11174.3,992.462 11166.6,989.201C11165.3,988.627 11163.8,988.376 11162.4,988.393L11162.4,988.395L11162.4,988.394L11162.3,988.395L11162.3,988.393C11160.9,988.376 11159.4,988.627 11158.1,989.201C11150.4,992.462 11145.5,1000.83 11142.5,1009.18C11139.8,1016.44 11138.7,1024.23 11138.6,1031.92L11138.6,1032.92C11138.6,1033.31 11138.6,1033.7 11138.5,1034.09C11138.8,1053.7 11142.5,1073.45 11150.2,1091.49C11158.9,1111.69 11172.7,1130.28 11192.2,1138.77C11206.9,1145.18 11223.3,1143.67 11236.6,1136.12C11253.1,1126.75 11265.1,1110.17 11272.9,1092.37C11289.1,1055.38 11289.5,1010.28 11273.3,972.321C11289.1,964.142 11289.1,947.834 11289.1,947.834C11289.1,947.834 11303.9,958.433 11320.5,951.779C11342.7,1003.67 11342.1,1064.76 11318.8,1115.87C11305.1,1145.75 11282.9,1171.92 11253.9,1185.39C11228.1,1197.38 11197.7,1197.68 11171.9,1186.42C11148.7,1176.3 11129.8,1158.06 11116.2,1136.85C11096.5,1106.13 11087.2,1068.74 11087.1,1031.89L11087.3,1031.89C11087.3,1031.5 11087.3,1031.11 11087.3,1030.72C11087.6,997.585 11101.1,963.834 11128.4,946.515C11138.4,940.155 11150.1,936.513 11161.9,936.383L11162.3,936.381L11162.3,936.381L11162.4,936.381L11162.4,936.381L11162.4,936.381ZM11151,1187.2C11125.6,1197.66 11096,1197.1 11070.8,1185.39C11041.8,1171.92 11019.6,1145.75 11005.9,1115.87C10982.6,1064.76 10982.1,1003.67 11004.2,951.779C11020.8,958.433 11035.6,947.834 11035.6,947.834C11035.6,947.834 11035.6,964.142 11051.4,972.321C11035.2,1010.28 11035.6,1055.38 11051.8,1092.37C11059.6,1110.17 11071.6,1126.75 11088.1,1136.12C11094,1139.46 11100.5,1141.62 11107.2,1142.43C11107.2,1142.47 11107.2,1142.51 11107.3,1142.55C11119.1,1160.95 11133.9,1176.28 11151,1187.2Z" style="fill-rule:nonzero;"/>
                </g>
                <g transform="matrix(7.31721,0,0,7.31721,462.613,1206.67)">
                    <path d="M120.48,28.38L124.08,28.38L125.76,38.28C125.92,39.34 126.085,40.39 126.255,41.43C126.425,42.47 126.59,43.51 126.75,44.55L126.87,44.55C127.07,43.51 127.275,42.465 127.485,41.415C127.695,40.365 127.91,39.32 128.13,38.28L130.56,28.38L133.56,28.38L135.99,38.28C136.21,39.3 136.425,40.335 136.635,41.385C136.845,42.435 137.06,43.49 137.28,44.55L137.4,44.55C137.56,43.49 137.72,42.44 137.88,41.4L138.36,38.28L140.04,28.38L143.4,28.38L139.62,48L135.3,48L132.87,37.68C132.71,36.92 132.56,36.165 132.42,35.415C132.28,34.665 132.14,33.91 132,33.15L131.88,33.15C131.74,33.91 131.6,34.665 131.46,35.415C131.32,36.165 131.17,36.92 131.01,37.68L128.64,48L124.38,48L120.48,28.38ZM148.37,28.38L160.16,28.38L160.16,31.32L151.85,31.32L151.85,36.33L158.9,36.33L158.9,39.27L151.85,39.27L151.85,45.06L160.46,45.06L160.46,48L148.37,48L148.37,28.38ZM166.39,28.38L172.66,28.38C173.66,28.38 174.59,28.465 175.45,28.635C176.31,28.805 177.05,29.075 177.67,29.445C178.29,29.815 178.775,30.31 179.125,30.93C179.475,31.55 179.65,32.31 179.65,33.21C179.65,34.15 179.38,35.02 178.84,35.82C178.3,36.62 177.45,37.17 176.29,37.47L176.29,37.59C177.71,37.83 178.8,38.335 179.56,39.105C180.32,39.875 180.7,40.92 180.7,42.24C180.7,43.22 180.51,44.07 180.13,44.79C179.75,45.51 179.225,46.11 178.555,46.59C177.885,47.07 177.09,47.425 176.17,47.655C175.25,47.885 174.25,48 173.17,48L166.39,48L166.39,28.38ZM172.33,36.51C173.71,36.51 174.705,36.26 175.315,35.76C175.925,35.26 176.23,34.55 176.23,33.63C176.23,32.73 175.915,32.08 175.285,31.68C174.655,31.28 173.7,31.08 172.42,31.08L169.87,31.08L169.87,36.51L172.33,36.51ZM172.81,45.3C174.25,45.3 175.355,45.03 176.125,44.49C176.895,43.95 177.28,43.12 177.28,42C177.28,40.98 176.9,40.225 176.14,39.735C175.38,39.245 174.27,39 172.81,39L169.87,39L169.87,45.3L172.81,45.3ZM186.21,28.38L189.69,28.38L189.69,45.06L197.82,45.06L197.82,48L186.21,48L186.21,28.38ZM211.49,39.96L210.8,37.56C210.5,36.52 210.2,35.45 209.9,34.35C209.6,33.25 209.31,32.16 209.03,31.08L208.91,31.08C208.63,32.18 208.35,33.275 208.07,34.365C207.79,35.455 207.49,36.52 207.17,37.56L206.48,39.96L211.49,39.96ZM212.27,42.69L205.7,42.69L204.17,48L200.6,48L207.02,28.38L211.1,28.38L217.49,48L213.8,48L212.27,42.69ZM224.59,31.32L218.92,31.32L218.92,28.38L233.71,28.38L233.71,31.32L228.07,31.32L228.07,48L224.59,48L224.59,31.32ZM238.92,28.38L250.71,28.38L250.71,31.32L242.4,31.32L242.4,36.33L249.45,36.33L249.45,39.27L242.4,39.27L242.4,45.06L251.01,45.06L251.01,48L238.92,48L238.92,28.38Z" style="fill-rule:nonzero;"/>
                </g>
            </g>
        </g>
    </g>
</svg>
