<?xml version="1.0" encoding="UTF-8" standalone="no"?>
<svg
   xmlns:dc="http://purl.org/dc/elements/1.1/"
   xmlns:cc="http://creativecommons.org/ns#"
   xmlns:rdf="http://www.w3.org/1999/02/22-rdf-syntax-ns#"
   xmlns:svg="http://www.w3.org/2000/svg"
   xmlns="http://www.w3.org/2000/svg"
   xmlns:xlink="http://www.w3.org/1999/xlink"
   xmlns:sodipodi="http://sodipodi.sourceforge.net/DTD/sodipodi-0.dtd"
   xmlns:inkscape="http://www.inkscape.org/namespaces/inkscape"
   width="592"
   height="592"
   viewBox="0 0 592 592"
   version="1.1"
   xml:space="preserve"
   style="clip-rule:evenodd;fill-rule:evenodd;stroke-linejoin:round;stroke-miterlimit:1.41420996"
   id="svg39"
   sodipodi:docname="weblate.svg"
   inkscape:version="0.92.4 (5da689c313, 2019-01-14)"><metadata
   id="metadata43"><rdf:RDF><cc:Work
       rdf:about=""><dc:format>image/svg+xml</dc:format><dc:type
         rdf:resource="http://purl.org/dc/dcmitype/StillImage" /><dc:title></dc:title></cc:Work></rdf:RDF></metadata><sodipodi:namedview
   pagecolor="#144d3f"
   bordercolor="#666666"
   borderopacity="1"
   objecttolerance="10"
   gridtolerance="10"
   guidetolerance="10"
   inkscape:pageopacity="0"
   inkscape:pageshadow="2"
   inkscape:window-width="1920"
   inkscape:window-height="1173"
   id="namedview41"
   showgrid="false"
   scale-x="1"
   units="px"
   width="1000px"
   inkscape:zoom="0.35633117"
   inkscape:cx="618.80638"
   inkscape:cy="-44.010251"
   inkscape:window-x="0"
   inkscape:window-y="27"
   inkscape:window-maximized="1"
   inkscape:current-layer="svg39"
   inkscape:pagecheckerboard="false" />
    <g
   transform="translate(-5947.4938,-769.50546)"
   id="g24">
        <g
   transform="translate(-0.648294)"
   id="g22">
            <g
   id="Basic-Landscape"
   transform="matrix(0.67099,0,0,0.67099,5689.72,74.8716)">
                <g
   transform="matrix(7.31721,0,0,7.31721,462.613,1206.67)"
   id="g4">
                    <path
   d="m 63.624,55.803 c -1.445,-0.007 -2.884,-0.301 -4.24,-0.892 -3.056,-1.331 -5.747,-3.846 -7.936,-7.248 0.624,-1.109 1.187,-2.258 1.689,-3.426 2.203,-5.122 3.25,-10.73 3.331,-16.297 -0.012,-0.11 -0.021,-0.221 -0.028,-0.332 l -0.006,-0.286 c -0.005,-2.183 -0.337,-4.395 -1.088,-6.454 -0.866,-2.373 -2.245,-4.748 -4.433,-5.674 -0.398,-0.168 -0.816,-0.239 -1.232,-0.229 -2.752,-5.144 -2.84,-10.074 0,-14.769 0.051,0 0.103,0.001 0.154,0.001 3.35,0.037 6.67,1.071 9.51,2.877 7.735,4.917 11.591,14.5 11.676,23.909 0.001,0.11 0,0.221 -0.003,0.331 h 0.043 C 71.05,37.257 68.659,47.341 63.624,55.803 Z M 46.474,71.411 C 39.25,74.382 30.86,74.223 23.699,70.899 15.461,67.075 9.167,59.643 5.29,51.159 -1.341,36.648 -1.493,19.302 4.796,4.568 c 4.723,1.89 8.922,-1.119 8.922,-1.119 0,0 -0.009,4.63 4.474,6.952 -4.6,10.778 -4.489,23.583 0.121,34.086 2.219,5.054 5.61,9.76 10.309,12.421 1.678,0.95 3.521,1.563 5.417,1.793 0.007,0.011 0.014,0.022 0.021,0.033 3.348,5.225 7.566,9.579 12.414,12.677 z"
   style="fill-rule:nonzero"
   id="path2"
   inkscape:connector-curvature="0" />
                </g>
                <g
   transform="matrix(7.31721,0,0,7.31721,462.613,1206.67)"
   id="g15">
                    <clipPath
   id="_clip2">
                        <path
   d="m 63.621,55.807 c -1.443,-0.008 -2.881,-0.302 -4.237,-0.893 -3.057,-1.331 -5.748,-3.846 -7.937,-7.249 0.625,-1.11 1.188,-2.26 1.69,-3.428 0.664,-1.544 1.223,-3.133 1.682,-4.751 1.064,-3.749 15.191,1.009 13.036,7.186 -1.112,3.186 -2.519,6.254 -4.234,9.135 z M 46.47,71.413 c -7.223,2.969 -15.611,2.809 -22.771,-0.514 -8.238,-3.824 0.224,-16.652 4.923,-13.991 1.677,0.95 3.519,1.563 5.414,1.793 0.008,0.012 0.016,0.025 0.024,0.037 3.347,5.223 7.564,9.576 12.41,12.675 z"
   id="path6"
   inkscape:connector-curvature="0" />
                    </clipPath>
                    <g
   clip-path="url(#_clip2)"
   id="g13">
                        <g
   transform="matrix(0.203675,0,0,0.203675,0.106306,0.0946875)"
   id="g11">
                            <use
   xlink:href="#_Image3"
   x="98.912003"
   y="187.283"
   width="234.87"
   height="173.629"
   transform="scale(0.999448,0.997869)"
   id="use9" />
                        </g>
                    </g>
                </g>
                <g
   transform="matrix(7.31721,0,0,7.31721,462.613,1206.67)"
   id="g19">
                    <path
   d="m 28.381,27.314 c -0.003,-0.11 -0.004,-0.221 -0.003,-0.331 0.085,-9.409 3.941,-18.992 11.676,-23.909 2.84,-1.806 6.16,-2.84 9.51,-2.877 0.051,0 0.103,-0.001 0.154,-0.001 v 14.769 c -0.416,-0.01 -0.835,0.061 -1.232,0.229 -2.188,0.926 -3.567,3.301 -4.433,5.674 -0.751,2.059 -1.083,4.271 -1.088,6.454 l -0.006,0.286 c -0.007,0.111 -0.016,0.222 -0.028,0.332 0.081,5.567 1.128,11.175 3.331,16.297 2.466,5.736 6.387,11.012 11.923,13.424 4.177,1.82 8.806,1.391 12.592,-0.753 4.699,-2.661 8.09,-7.367 10.309,-12.421 4.61,-10.503 4.721,-23.308 0.121,-34.086 4.483,-2.322 4.474,-6.952 4.474,-6.952 0,0 4.199,3.009 8.922,1.119 6.289,14.734 6.137,32.08 -0.494,46.591 C 90.232,59.643 83.938,67.075 75.7,70.899 68.366,74.303 59.743,74.388 52.404,71.191 45.809,68.316 40.445,63.137 36.586,57.116 30.997,48.394 28.35,37.776 28.338,27.314 Z"
   style="fill-rule:nonzero"
   id="path17"
   inkscape:connector-curvature="0" />
                </g>
            </g>
        </g>
    </g>
</svg>
