<?xml version="1.0" encoding="UTF-8" standalone="no"?>
<!DOCTYPE svg PUBLIC "-//W3C//DTD SVG 1.1//EN" "http://www.w3.org/Graphics/SVG/1.1/DTD/svg11.dtd">
<svg width="100%" height="100%" viewBox="0 0 884 259" version="1.1" xmlns="http://www.w3.org/2000/svg" xmlns:xlink="http://www.w3.org/1999/xlink" xml:space="preserve" xmlns:serif="http://www.serif.com/" style="fill-rule:evenodd;clip-rule:evenodd;stroke-linejoin:round;stroke-miterlimit:1.41421;">
    <g transform="matrix(1,0,0,1,-12112,-936)">
        <g transform="matrix(1,0,0,1,-0.648294,0)">
            <g id="White-Landscape" transform="matrix(0.481327,0,0,0.481327,11889.6,354.887)">
                <g transform="matrix(2.07759,0,0,2.07759,-24700.3,-737.309)">
                    <path d="M12286.7,936.381L12287.1,936.383C12298.9,936.513 12310.6,940.155 12320.6,946.515C12347.8,963.834 12361.4,997.585 12361.7,1030.72C12361.7,1031.11 12361.7,1031.5 12361.7,1031.89L12361.9,1031.89C12361.8,1066.91 12353.4,1102.42 12335.7,1132.23C12330.6,1132.2 12325.5,1131.16 12320.7,1129.08C12310,1124.39 12300.5,1115.54 12292.8,1103.56C12295,1099.65 12297,1095.6 12298.7,1091.49C12306.5,1073.45 12310.2,1053.7 12310.5,1034.09C12310.4,1033.7 12310.4,1033.31 12310.4,1032.92L12310.3,1031.92C12310.3,1024.23 12309.2,1016.44 12306.5,1009.18C12303.5,1000.83 12298.6,992.462 12290.9,989.201C12289.5,988.627 12288.1,988.376 12286.7,988.393L12286.7,988.395L12286.6,988.394L12286.6,988.395L12286.6,988.393C12285.1,988.376 12283.7,988.627 12282.4,989.201C12274.6,992.462 12269.8,1000.83 12266.7,1009.18C12264.1,1016.44 12262.9,1024.23 12262.9,1031.92L12262.9,1032.92C12262.9,1033.31 12262.8,1033.7 12262.8,1034.09C12263.1,1053.7 12266.8,1073.45 12274.5,1091.49C12283.2,1111.69 12297,1130.28 12316.5,1138.77C12331.2,1145.18 12347.5,1143.67 12360.9,1136.12C12377.4,1126.75 12389.4,1110.17 12397.2,1092.37C12413.4,1055.38 12413.8,1010.28 12397.6,972.321C12413.4,964.142 12413.3,947.834 12413.3,947.834C12413.3,947.834 12428.1,958.433 12444.8,951.779C12466.9,1003.67 12466.4,1064.76 12443,1115.87C12429.4,1145.75 12407.2,1171.92 12378.2,1185.39C12352.4,1197.38 12322,1197.68 12296.2,1186.42C12272.9,1176.3 12254,1158.06 12240.4,1136.85C12220.8,1106.13 12211.4,1068.74 12211.4,1031.89L12211.5,1031.89C12211.5,1031.5 12211.5,1031.11 12211.5,1030.72C12211.8,997.585 12225.4,963.834 12252.7,946.515C12262.7,940.155 12274.3,936.513 12286.1,936.383L12286.6,936.381L12286.6,936.381L12286.6,936.381L12286.7,936.381L12286.7,936.381ZM12275.3,1187.2C12249.8,1197.66 12220.3,1197.1 12195.1,1185.39C12166,1171.92 12143.9,1145.75 12130.2,1115.87C12106.9,1064.76 12106.3,1003.67 12128.5,951.779C12145.1,958.433 12159.9,947.834 12159.9,947.834C12159.9,947.834 12159.9,964.142 12175.7,972.321C12159.5,1010.28 12159.8,1055.38 12176.1,1092.37C12183.9,1110.17 12195.8,1126.75 12212.4,1136.12C12218.3,1139.46 12224.8,1141.62 12231.5,1142.43C12231.5,1142.47 12231.5,1142.51 12231.5,1142.55C12243.3,1160.95 12258.2,1176.28 12275.3,1187.2Z" style="fill:white;fill-rule:nonzero;"/>
                </g>
                <g transform="matrix(7.31721,0,0,7.31721,462.613,1206.67)">
                    <path d="M120.48,28.38L124.08,28.38L125.76,38.28C125.92,39.34 126.085,40.39 126.255,41.43C126.425,42.47 126.59,43.51 126.75,44.55L126.87,44.55C127.07,43.51 127.275,42.465 127.485,41.415C127.695,40.365 127.91,39.32 128.13,38.28L130.56,28.38L133.56,28.38L135.99,38.28C136.21,39.3 136.425,40.335 136.635,41.385C136.845,42.435 137.06,43.49 137.28,44.55L137.4,44.55C137.56,43.49 137.72,42.44 137.88,41.4L138.36,38.28L140.04,28.38L143.4,28.38L139.62,48L135.3,48L132.87,37.68C132.71,36.92 132.56,36.165 132.42,35.415C132.28,34.665 132.14,33.91 132,33.15L131.88,33.15C131.74,33.91 131.6,34.665 131.46,35.415C131.32,36.165 131.17,36.92 131.01,37.68L128.64,48L124.38,48L120.48,28.38ZM148.37,28.38L160.16,28.38L160.16,31.32L151.85,31.32L151.85,36.33L158.9,36.33L158.9,39.27L151.85,39.27L151.85,45.06L160.46,45.06L160.46,48L148.37,48L148.37,28.38ZM166.39,28.38L172.66,28.38C173.66,28.38 174.59,28.465 175.45,28.635C176.31,28.805 177.05,29.075 177.67,29.445C178.29,29.815 178.775,30.31 179.125,30.93C179.475,31.55 179.65,32.31 179.65,33.21C179.65,34.15 179.38,35.02 178.84,35.82C178.3,36.62 177.45,37.17 176.29,37.47L176.29,37.59C177.71,37.83 178.8,38.335 179.56,39.105C180.32,39.875 180.7,40.92 180.7,42.24C180.7,43.22 180.51,44.07 180.13,44.79C179.75,45.51 179.225,46.11 178.555,46.59C177.885,47.07 177.09,47.425 176.17,47.655C175.25,47.885 174.25,48 173.17,48L166.39,48L166.39,28.38ZM172.33,36.51C173.71,36.51 174.705,36.26 175.315,35.76C175.925,35.26 176.23,34.55 176.23,33.63C176.23,32.73 175.915,32.08 175.285,31.68C174.655,31.28 173.7,31.08 172.42,31.08L169.87,31.08L169.87,36.51L172.33,36.51ZM172.81,45.3C174.25,45.3 175.355,45.03 176.125,44.49C176.895,43.95 177.28,43.12 177.28,42C177.28,40.98 176.9,40.225 176.14,39.735C175.38,39.245 174.27,39 172.81,39L169.87,39L169.87,45.3L172.81,45.3ZM186.21,28.38L189.69,28.38L189.69,45.06L197.82,45.06L197.82,48L186.21,48L186.21,28.38ZM211.49,39.96L210.8,37.56C210.5,36.52 210.2,35.45 209.9,34.35C209.6,33.25 209.31,32.16 209.03,31.08L208.91,31.08C208.63,32.18 208.35,33.275 208.07,34.365C207.79,35.455 207.49,36.52 207.17,37.56L206.48,39.96L211.49,39.96ZM212.27,42.69L205.7,42.69L204.17,48L200.6,48L207.02,28.38L211.1,28.38L217.49,48L213.8,48L212.27,42.69ZM224.59,31.32L218.92,31.32L218.92,28.38L233.71,28.38L233.71,31.32L228.07,31.32L228.07,48L224.59,48L224.59,31.32ZM238.92,28.38L250.71,28.38L250.71,31.32L242.4,31.32L242.4,36.33L249.45,36.33L249.45,39.27L242.4,39.27L242.4,45.06L251.01,45.06L251.01,48L238.92,48L238.92,28.38Z" style="fill:white;fill-rule:nonzero;"/>
                </g>
            </g>
        </g>
    </g>
</svg>
