<?xml version="1.0" encoding="UTF-8" standalone="no"?>
<!DOCTYPE svg PUBLIC "-//W3C//DTD SVG 1.1//EN" "http://www.w3.org/Graphics/SVG/1.1/DTD/svg11.dtd">
<svg width="100%" height="100%" viewBox="0 0 461 400" version="1.1" xmlns="http://www.w3.org/2000/svg" xmlns:xlink="http://www.w3.org/1999/xlink" xml:space="preserve" xmlns:serif="http://www.serif.com/" style="fill-rule:evenodd;clip-rule:evenodd;stroke-linejoin:round;stroke-miterlimit:1.41421;">
    <g transform="matrix(1,0,0,1,-11199,-1737)">
        <g transform="matrix(1,0,0,1,-0.648294,0)">
            <g id="Black-Square" transform="matrix(0.717338,0,0,0.717338,6951.17,398.625)">
                <g transform="matrix(1.39404,0,0,1.39404,-9689.33,-555.7)">
                    <g>
                        <path d="M11429.7,1737.94L11430.2,1737.94C11442,1738.07 11453.6,1741.71 11463.7,1748.08C11490.9,1765.39 11504.5,1799.14 11504.8,1832.28C11504.8,1832.67 11504.8,1833.06 11504.8,1833.45L11504.9,1833.45C11504.9,1868.47 11496.5,1903.98 11478.7,1933.79C11473.6,1933.76 11468.6,1932.73 11463.8,1930.64C11453,1925.95 11443.5,1917.1 11435.8,1905.12C11438,1901.21 11440,1897.16 11441.8,1893.05C11449.5,1875.01 11453.2,1855.26 11453.5,1835.65C11453.5,1835.26 11453.4,1834.87 11453.4,1834.48L11453.4,1833.48C11453.4,1825.79 11452.2,1818 11449.6,1810.74C11446.5,1802.39 11441.7,1794.02 11434,1790.76C11432.6,1790.19 11431.2,1789.93 11429.7,1789.95L11429.7,1789.95L11429.7,1789.95L11429.6,1789.95L11429.6,1789.95C11428.2,1789.93 11426.8,1790.19 11425.4,1790.76C11417.7,1794.02 11412.8,1802.39 11409.8,1810.74C11407.2,1818 11406,1825.79 11406,1833.48L11405.9,1834.48C11405.9,1834.87 11405.9,1835.26 11405.8,1835.65C11406.1,1855.26 11409.8,1875.01 11417.6,1893.05C11426.3,1913.25 11440.1,1931.84 11459.6,1940.33C11474.3,1946.74 11490.6,1945.23 11503.9,1937.68C11520.5,1928.3 11532.4,1911.73 11540.2,1893.93C11556.5,1856.94 11556.9,1811.84 11540.6,1773.88C11556.4,1765.7 11556.4,1749.39 11556.4,1749.39C11556.4,1749.39 11571.2,1759.99 11587.8,1753.34C11610,1805.23 11609.4,1866.32 11586.1,1917.43C11572.4,1947.31 11550.3,1973.48 11521.3,1986.95C11495.4,1998.94 11465.1,1999.24 11439.2,1987.98C11416,1977.86 11397.1,1959.62 11383.5,1938.41C11363.8,1907.69 11354.5,1870.3 11354.4,1833.45L11354.6,1833.45C11354.6,1833.06 11354.6,1832.67 11354.6,1832.28C11354.9,1799.14 11368.5,1765.39 11395.7,1748.08C11405.7,1741.71 11417.4,1738.07 11429.2,1737.94L11429.6,1737.94L11429.6,1737.94L11429.7,1737.94L11429.7,1737.94L11429.7,1737.94ZM11418.3,1988.76C11392.9,1999.22 11363.3,1998.66 11338.1,1986.95C11309.1,1973.48 11286.9,1947.31 11273.3,1917.43C11249.9,1866.32 11249.4,1805.23 11271.5,1753.34C11288.2,1759.99 11303,1749.39 11303,1749.39C11303,1749.39 11302.9,1765.7 11318.7,1773.88C11302.5,1811.84 11302.9,1856.94 11319.1,1893.93C11327,1911.73 11338.9,1928.3 11355.4,1937.68C11361.4,1941.02 11367.8,1943.18 11374.5,1943.99C11374.6,1944.03 11374.6,1944.07 11374.6,1944.11C11386.4,1962.51 11401.2,1977.84 11418.3,1988.76Z" style="fill-rule:nonzero;"/>
                    </g>
                </g>
                <g transform="matrix(4.90977,0,0,4.90977,5332.17,2187.27)">
                    <path d="M120.48,28.38L124.08,28.38L125.76,38.28C125.92,39.34 126.085,40.39 126.255,41.43C126.425,42.47 126.59,43.51 126.75,44.55L126.87,44.55C127.07,43.51 127.275,42.465 127.485,41.415C127.695,40.365 127.91,39.32 128.13,38.28L130.56,28.38L133.56,28.38L135.99,38.28C136.21,39.3 136.425,40.335 136.635,41.385C136.845,42.435 137.06,43.49 137.28,44.55L137.4,44.55C137.56,43.49 137.72,42.44 137.88,41.4L138.36,38.28L140.04,28.38L143.4,28.38L139.62,48L135.3,48L132.87,37.68C132.71,36.92 132.56,36.165 132.42,35.415C132.28,34.665 132.14,33.91 132,33.15L131.88,33.15C131.74,33.91 131.6,34.665 131.46,35.415C131.32,36.165 131.17,36.92 131.01,37.68L128.64,48L124.38,48L120.48,28.38ZM148.37,28.38L160.16,28.38L160.16,31.32L151.85,31.32L151.85,36.33L158.9,36.33L158.9,39.27L151.85,39.27L151.85,45.06L160.46,45.06L160.46,48L148.37,48L148.37,28.38ZM166.39,28.38L172.66,28.38C173.66,28.38 174.59,28.465 175.45,28.635C176.31,28.805 177.05,29.075 177.67,29.445C178.29,29.815 178.775,30.31 179.125,30.93C179.475,31.55 179.65,32.31 179.65,33.21C179.65,34.15 179.38,35.02 178.84,35.82C178.3,36.62 177.45,37.17 176.29,37.47L176.29,37.59C177.71,37.83 178.8,38.335 179.56,39.105C180.32,39.875 180.7,40.92 180.7,42.24C180.7,43.22 180.51,44.07 180.13,44.79C179.75,45.51 179.225,46.11 178.555,46.59C177.885,47.07 177.09,47.425 176.17,47.655C175.25,47.885 174.25,48 173.17,48L166.39,48L166.39,28.38ZM172.33,36.51C173.71,36.51 174.705,36.26 175.315,35.76C175.925,35.26 176.23,34.55 176.23,33.63C176.23,32.73 175.915,32.08 175.285,31.68C174.655,31.28 173.7,31.08 172.42,31.08L169.87,31.08L169.87,36.51L172.33,36.51ZM172.81,45.3C174.25,45.3 175.355,45.03 176.125,44.49C176.895,43.95 177.28,43.12 177.28,42C177.28,40.98 176.9,40.225 176.14,39.735C175.38,39.245 174.27,39 172.81,39L169.87,39L169.87,45.3L172.81,45.3ZM186.21,28.38L189.69,28.38L189.69,45.06L197.82,45.06L197.82,48L186.21,48L186.21,28.38ZM211.49,39.96L210.8,37.56C210.5,36.52 210.2,35.45 209.9,34.35C209.6,33.25 209.31,32.16 209.03,31.08L208.91,31.08C208.63,32.18 208.35,33.275 208.07,34.365C207.79,35.455 207.49,36.52 207.17,37.56L206.48,39.96L211.49,39.96ZM212.27,42.69L205.7,42.69L204.17,48L200.6,48L207.02,28.38L211.1,28.38L217.49,48L213.8,48L212.27,42.69ZM224.59,31.32L218.92,31.32L218.92,28.38L233.71,28.38L233.71,31.32L228.07,31.32L228.07,48L224.59,48L224.59,31.32ZM238.92,28.38L250.71,28.38L250.71,31.32L242.4,31.32L242.4,36.33L249.45,36.33L249.45,39.27L242.4,39.27L242.4,45.06L251.01,45.06L251.01,48L238.92,48L238.92,28.38Z" style="fill-rule:nonzero;"/>
                </g>
            </g>
        </g>
    </g>
</svg>
