<?xml version="1.0" encoding="UTF-8"?>
<svg xmlns="http://www.w3.org/2000/svg" xmlns:xlink="http://www.w3.org/1999/xlink" width="110.64pt" height="96pt" viewBox="0 0 110.64 96" version="1.2">
<defs>
<clipPath id="clip1">
  <path d="M 13 0.15625 L 97 0.15625 L 97 63 L 13 63 Z M 13 0.15625 "/>
</clipPath>
<clipPath id="clip2">
  <path d="M 0 79 L 110.28125 79 L 110.28125 95.84375 L 0 95.84375 Z M 0 79 "/>
</clipPath>
</defs>
<g id="surface1">
<g clip-path="url(#clip1)" clip-rule="nonzero">
<path style=" stroke:none;fill-rule:nonzero;fill:rgb(0.392151%,0%,0%);fill-opacity:1;" d="M 55.199219 0.378906 L 55.296875 0.382812 C 58.121094 0.414062 60.917969 1.285156 63.3125 2.804688 C 69.828125 6.949219 73.078125 15.023438 73.148438 22.949219 C 73.148438 23.042969 73.148438 23.136719 73.144531 23.226562 L 73.183594 23.226562 C 73.171875 31.605469 71.15625 40.101562 66.914062 47.230469 C 65.699219 47.226562 64.484375 46.976562 63.34375 46.480469 C 60.769531 45.359375 58.5 43.238281 56.65625 40.371094 C 57.183594 39.4375 57.65625 38.46875 58.082031 37.484375 C 59.9375 33.171875 60.820312 28.445312 60.886719 23.753906 C 60.875 23.664062 60.867188 23.570312 60.863281 23.476562 L 60.859375 23.234375 C 60.855469 21.394531 60.574219 19.53125 59.941406 17.796875 C 59.210938 15.796875 58.050781 13.796875 56.207031 13.015625 C 55.882812 12.878906 55.539062 12.820312 55.199219 12.824219 L 55.167969 12.824219 C 54.828125 12.820312 54.488281 12.878906 54.160156 13.015625 C 52.316406 13.796875 51.15625 15.796875 50.425781 17.796875 C 49.792969 19.53125 49.515625 21.394531 49.511719 23.234375 L 49.503906 23.476562 C 49.5 23.570312 49.492188 23.664062 49.480469 23.753906 C 49.550781 28.445312 50.433594 33.171875 52.289062 37.484375 C 54.367188 42.320312 57.667969 46.765625 62.332031 48.796875 C 65.851562 50.328125 69.753906 49.96875 72.941406 48.160156 C 76.902344 45.917969 79.757812 41.953125 81.628906 37.695312 C 85.511719 28.847656 85.605469 18.058594 81.730469 8.976562 C 85.507812 7.023438 85.5 3.121094 85.5 3.121094 C 85.5 3.121094 89.039062 5.65625 93.015625 4.0625 C 98.316406 16.476562 98.1875 31.09375 92.601562 43.316406 C 89.335938 50.464844 84.03125 56.726562 77.089844 59.949219 C 70.910156 62.816406 63.644531 62.890625 57.460938 60.195312 C 51.90625 57.773438 47.386719 53.410156 44.136719 48.335938 C 39.425781 40.988281 37.195312 32.042969 37.1875 23.226562 L 37.222656 23.226562 C 37.21875 23.136719 37.21875 23.042969 37.21875 22.949219 C 37.292969 15.023438 40.539062 6.949219 47.058594 2.804688 C 49.449219 1.285156 52.246094 0.414062 55.070312 0.382812 L 55.167969 0.378906 Z M 52.464844 60.382812 C 46.378906 62.882812 39.3125 62.75 33.277344 59.949219 C 26.335938 56.726562 21.035156 50.464844 17.765625 43.316406 C 12.179688 31.09375 12.054688 16.476562 17.351562 4.0625 C 21.332031 5.65625 24.867188 3.121094 24.867188 3.121094 C 24.867188 3.121094 24.859375 7.023438 28.636719 8.976562 C 24.761719 18.058594 24.855469 28.847656 28.738281 37.695312 C 30.609375 41.953125 33.464844 45.917969 37.425781 48.160156 C 38.839844 48.960938 40.390625 49.480469 41.988281 49.671875 C 41.996094 49.683594 42 49.691406 42.007812 49.699219 C 44.828125 54.101562 48.382812 57.769531 52.464844 60.382812 Z M 52.464844 60.382812 "/>
</g>
<g clip-path="url(#clip2)" clip-rule="nonzero">
<path style=" stroke:none;fill-rule:nonzero;fill:rgb(0.392151%,0%,0%);fill-opacity:1;" d="M 0.195312 79.242188 L 3.230469 79.242188 L 4.644531 87.582031 C 4.78125 88.472656 4.917969 89.359375 5.0625 90.234375 C 5.203125 91.113281 5.34375 91.988281 5.480469 92.863281 L 5.578125 92.863281 C 5.75 91.988281 5.921875 91.109375 6.097656 90.222656 C 6.273438 89.339844 6.457031 88.457031 6.640625 87.582031 L 8.6875 79.242188 L 11.214844 79.242188 L 13.265625 87.582031 C 13.449219 88.441406 13.628906 89.3125 13.808594 90.199219 C 13.984375 91.082031 14.164062 91.972656 14.351562 92.863281 L 14.453125 92.863281 C 14.585938 91.972656 14.722656 91.085938 14.855469 90.210938 L 15.261719 87.582031 L 16.675781 79.242188 L 19.507812 79.242188 L 16.320312 95.769531 L 12.683594 95.769531 L 10.636719 87.074219 C 10.5 86.4375 10.375 85.800781 10.257812 85.167969 C 10.136719 84.535156 10.019531 83.898438 9.902344 83.257812 L 9.800781 83.257812 C 9.683594 83.898438 9.566406 84.535156 9.445312 85.167969 C 9.328125 85.800781 9.203125 86.4375 9.066406 87.074219 L 7.070312 95.769531 L 3.480469 95.769531 Z M 23.695312 79.242188 L 33.628906 79.242188 L 33.628906 81.71875 L 26.625 81.71875 L 26.625 85.9375 L 32.566406 85.9375 L 32.566406 88.414062 L 26.625 88.414062 L 26.625 93.292969 L 33.878906 93.292969 L 33.878906 95.769531 L 23.695312 95.769531 Z M 38.875 79.242188 L 44.160156 79.242188 C 45.003906 79.242188 45.785156 79.3125 46.511719 79.457031 C 47.234375 79.597656 47.859375 79.824219 48.378906 80.136719 C 48.902344 80.449219 49.3125 80.867188 49.605469 81.390625 C 49.902344 81.910156 50.046875 82.550781 50.046875 83.308594 C 50.046875 84.101562 49.820312 84.835938 49.367188 85.507812 C 48.910156 86.183594 48.195312 86.644531 47.21875 86.898438 L 47.21875 87 C 48.414062 87.203125 49.332031 87.628906 49.972656 88.277344 C 50.613281 88.925781 50.933594 89.804688 50.933594 90.917969 C 50.933594 91.742188 50.773438 92.460938 50.453125 93.066406 C 50.132812 93.671875 49.691406 94.179688 49.125 94.582031 C 48.5625 94.988281 47.890625 95.285156 47.117188 95.480469 C 46.339844 95.675781 45.5 95.769531 44.589844 95.769531 L 38.875 95.769531 Z M 43.882812 86.089844 C 45.042969 86.089844 45.882812 85.878906 46.394531 85.457031 C 46.910156 85.035156 47.167969 84.4375 47.167969 83.664062 C 47.167969 82.90625 46.902344 82.359375 46.371094 82.019531 C 45.839844 81.683594 45.035156 81.515625 43.957031 81.515625 L 41.808594 81.515625 L 41.808594 86.089844 Z M 44.285156 93.496094 C 45.5 93.496094 46.429688 93.269531 47.078125 92.8125 C 47.726562 92.359375 48.050781 91.660156 48.050781 90.714844 C 48.050781 89.855469 47.730469 89.21875 47.089844 88.808594 C 46.449219 88.394531 45.515625 88.1875 44.285156 88.1875 L 41.808594 88.1875 L 41.808594 93.496094 Z M 55.574219 79.242188 L 58.507812 79.242188 L 58.507812 93.292969 L 65.359375 93.292969 L 65.359375 95.769531 L 55.574219 95.769531 Z M 76.875 88.996094 L 76.292969 86.976562 C 76.039062 86.097656 75.789062 85.195312 75.535156 84.269531 C 75.28125 83.34375 75.039062 82.425781 74.800781 81.515625 L 74.699219 81.515625 C 74.464844 82.441406 74.230469 83.363281 73.992188 84.28125 C 73.757812 85.203125 73.503906 86.097656 73.234375 86.976562 L 72.652344 88.996094 Z M 77.53125 91.296875 L 71.996094 91.296875 L 70.707031 95.769531 L 67.699219 95.769531 L 73.109375 79.242188 L 76.546875 79.242188 L 81.929688 95.769531 L 78.820312 95.769531 Z M 87.910156 81.71875 L 83.136719 81.71875 L 83.136719 79.242188 L 95.597656 79.242188 L 95.597656 81.71875 L 90.84375 81.71875 L 90.84375 95.769531 L 87.910156 95.769531 Z M 99.984375 79.242188 L 109.917969 79.242188 L 109.917969 81.71875 L 102.917969 81.71875 L 102.917969 85.9375 L 108.859375 85.9375 L 108.859375 88.414062 L 102.917969 88.414062 L 102.917969 93.292969 L 110.171875 93.292969 L 110.171875 95.769531 L 99.984375 95.769531 Z M 99.984375 79.242188 "/>
</g>
</g>
</svg>
