<?xml version="1.0" encoding="UTF-8"?>
<svg xmlns="http://www.w3.org/2000/svg" xmlns:xlink="http://www.w3.org/1999/xlink" width="212.16pt" height="62.16pt" viewBox="0 0 212.16 62.16" version="1.2">
<defs>
<clipPath id="clip1">
  <path d="M 1 0 L 84 0 L 84 61.332031 L 1 61.332031 Z M 1 0 "/>
</clipPath>
<clipPath id="clip2">
  <path d="M 101 23 L 210.332031 23 L 210.332031 40 L 101 40 Z M 101 23 "/>
</clipPath>
</defs>
<g id="surface1">
<g clip-path="url(#clip1)" clip-rule="nonzero">
<path style=" stroke:none;fill-rule:nonzero;fill:rgb(0.392151%,0%,0%);fill-opacity:1;" d="M 42.300781 0.0898438 L 42.398438 0.0898438 C 45.195312 0.121094 47.960938 0.984375 50.332031 2.488281 C 56.78125 6.589844 60 14.582031 60.070312 22.429688 C 60.070312 22.523438 60.070312 22.613281 60.066406 22.707031 L 60.101562 22.707031 C 60.09375 31 58.097656 39.410156 53.898438 46.464844 C 52.695312 46.460938 51.496094 46.214844 50.363281 45.722656 C 47.816406 44.613281 45.570312 42.515625 43.746094 39.675781 C 44.265625 38.753906 44.734375 37.792969 45.152344 36.820312 C 46.992188 32.546875 47.863281 27.871094 47.929688 23.226562 C 47.921875 23.136719 47.914062 23.042969 47.910156 22.949219 L 47.902344 22.714844 C 47.898438 20.890625 47.621094 19.046875 46.996094 17.328125 C 46.273438 15.351562 45.125 13.371094 43.300781 12.597656 C 42.976562 12.460938 42.640625 12.402344 42.300781 12.40625 L 42.269531 12.40625 C 41.933594 12.402344 41.597656 12.460938 41.273438 12.597656 C 39.449219 13.371094 38.300781 15.351562 37.578125 17.328125 C 36.953125 19.046875 36.675781 20.890625 36.671875 22.714844 L 36.664062 22.949219 C 36.660156 23.042969 36.652344 23.136719 36.640625 23.226562 C 36.710938 27.871094 37.582031 32.546875 39.417969 36.820312 C 41.476562 41.605469 44.746094 46.003906 49.363281 48.015625 C 52.847656 49.535156 56.707031 49.175781 59.863281 47.386719 C 63.785156 45.167969 66.613281 41.242188 68.464844 37.027344 C 72.308594 28.269531 72.402344 17.589844 68.5625 8.601562 C 72.304688 6.664062 72.296875 2.800781 72.296875 2.800781 C 72.296875 2.800781 75.796875 5.3125 79.738281 3.734375 C 84.980469 16.023438 84.855469 30.492188 79.324219 42.59375 C 76.089844 49.667969 70.839844 55.867188 63.972656 59.054688 C 57.855469 61.894531 50.664062 61.964844 44.542969 59.300781 C 39.042969 56.902344 34.570312 52.582031 31.351562 47.5625 C 26.6875 40.285156 24.480469 31.433594 24.472656 22.707031 L 24.507812 22.707031 C 24.503906 22.613281 24.503906 22.523438 24.503906 22.429688 C 24.574219 14.582031 27.792969 6.589844 34.242188 2.488281 C 36.613281 0.984375 39.378906 0.121094 42.175781 0.0898438 Z M 39.597656 59.484375 C 33.570312 61.960938 26.574219 61.828125 20.601562 59.054688 C 13.730469 55.867188 8.484375 49.667969 5.25 42.59375 C -0.28125 30.492188 -0.40625 16.023438 4.835938 3.734375 C 8.777344 5.3125 12.277344 2.800781 12.277344 2.800781 C 12.277344 2.800781 12.269531 6.664062 16.011719 8.601562 C 12.171875 17.589844 12.265625 28.269531 16.109375 37.027344 C 17.960938 41.242188 20.789062 45.167969 24.707031 47.386719 C 26.109375 48.179688 27.644531 48.691406 29.226562 48.882812 C 29.230469 48.890625 29.238281 48.902344 29.242188 48.910156 C 32.035156 53.269531 35.554688 56.898438 39.597656 59.484375 Z M 39.597656 59.484375 "/>
</g>
<g clip-path="url(#clip2)" clip-rule="nonzero">
<path style=" stroke:none;fill-rule:nonzero;fill:rgb(0.392151%,0%,0%);fill-opacity:1;" d="M 101.316406 23.59375 L 104.320312 23.59375 L 105.722656 31.851562 C 105.855469 32.734375 105.992188 33.613281 106.132812 34.480469 C 106.277344 35.347656 106.414062 36.214844 106.546875 37.082031 L 106.648438 37.082031 C 106.8125 36.214844 106.984375 35.34375 107.160156 34.464844 C 107.335938 33.589844 107.515625 32.71875 107.699219 31.851562 L 109.726562 23.59375 L 112.226562 23.59375 L 114.253906 31.851562 C 114.4375 32.703125 114.617188 33.566406 114.792969 34.441406 C 114.964844 35.316406 115.144531 36.195312 115.328125 37.082031 L 115.429688 37.082031 C 115.5625 36.195312 115.695312 35.320312 115.828125 34.453125 L 116.230469 31.851562 L 117.632812 23.59375 L 120.433594 23.59375 L 117.28125 39.957031 L 113.679688 39.957031 L 111.652344 31.351562 C 111.515625 30.71875 111.390625 30.089844 111.277344 29.460938 C 111.160156 28.835938 111.042969 28.207031 110.925781 27.574219 L 110.824219 27.574219 C 110.707031 28.207031 110.59375 28.835938 110.476562 29.460938 C 110.359375 30.089844 110.234375 30.71875 110.101562 31.351562 L 108.125 39.957031 L 104.570312 39.957031 Z M 124.578125 23.59375 L 134.410156 23.59375 L 134.410156 26.046875 L 127.480469 26.046875 L 127.480469 30.226562 L 133.359375 30.226562 L 133.359375 32.675781 L 127.480469 32.675781 L 127.480469 37.507812 L 134.660156 37.507812 L 134.660156 39.957031 L 124.578125 39.957031 Z M 139.605469 23.59375 L 144.835938 23.59375 C 145.671875 23.59375 146.445312 23.667969 147.164062 23.808594 C 147.878906 23.949219 148.496094 24.175781 149.015625 24.484375 C 149.53125 24.792969 149.9375 25.203125 150.226562 25.722656 C 150.519531 26.238281 150.664062 26.871094 150.664062 27.625 C 150.664062 28.40625 150.441406 29.132812 149.992188 29.800781 C 149.539062 30.46875 148.832031 30.925781 147.863281 31.175781 L 147.863281 31.277344 C 149.046875 31.476562 149.957031 31.898438 150.589844 32.539062 C 151.226562 33.183594 151.542969 34.054688 151.542969 35.15625 C 151.542969 35.972656 151.382812 36.679688 151.066406 37.28125 C 150.75 37.882812 150.3125 38.382812 149.753906 38.78125 C 149.195312 39.183594 148.53125 39.480469 147.765625 39.671875 C 146.996094 39.863281 146.164062 39.957031 145.261719 39.957031 L 139.605469 39.957031 Z M 144.5625 30.375 C 145.710938 30.375 146.542969 30.167969 147.050781 29.75 C 147.558594 29.332031 147.8125 28.742188 147.8125 27.972656 C 147.8125 27.222656 147.550781 26.679688 147.027344 26.347656 C 146.5 26.015625 145.703125 25.847656 144.636719 25.847656 L 142.507812 25.847656 L 142.507812 30.375 Z M 144.960938 37.707031 C 146.164062 37.707031 147.082031 37.480469 147.726562 37.03125 C 148.367188 36.582031 148.6875 35.886719 148.6875 34.953125 C 148.6875 34.105469 148.371094 33.472656 147.738281 33.066406 C 147.105469 32.65625 146.179688 32.453125 144.960938 32.453125 L 142.507812 32.453125 L 142.507812 37.707031 Z M 156.136719 23.59375 L 159.039062 23.59375 L 159.039062 37.507812 L 165.820312 37.507812 L 165.820312 39.957031 L 156.136719 39.957031 Z M 177.21875 33.253906 L 176.644531 31.25 C 176.394531 30.382812 176.144531 29.492188 175.894531 28.574219 C 175.644531 27.65625 175.402344 26.746094 175.167969 25.847656 L 175.070312 25.847656 C 174.835938 26.765625 174.601562 27.675781 174.367188 28.585938 C 174.132812 29.496094 173.882812 30.382812 173.617188 31.25 L 173.042969 33.253906 Z M 177.871094 35.53125 L 172.390625 35.53125 L 171.113281 39.957031 L 168.136719 39.957031 L 173.492188 23.59375 L 176.894531 23.59375 L 182.222656 39.957031 L 179.148438 39.957031 Z M 188.144531 26.046875 L 183.417969 26.046875 L 183.417969 23.59375 L 195.753906 23.59375 L 195.753906 26.046875 L 191.046875 26.046875 L 191.046875 39.957031 L 188.144531 39.957031 Z M 200.097656 23.59375 L 209.929688 23.59375 L 209.929688 26.046875 L 203 26.046875 L 203 30.226562 L 208.878906 30.226562 L 208.878906 32.675781 L 203 32.675781 L 203 37.507812 L 210.179688 37.507812 L 210.179688 39.957031 L 200.097656 39.957031 Z M 200.097656 23.59375 "/>
</g>
</g>
</svg>
