<svg xmlns="http://www.w3.org/2000/svg" xmlns:xlink="http://www.w3.org/1999/xlink" width="202" height="150" version="1.1" viewBox="0 0 202 150"><title>3B5C6144-429B-4037-99B2-5453161ABEA8</title><desc>Created with sketchtool.</desc><g id="Weblate" fill="none" fill-rule="evenodd" stroke="none" stroke-width="1"><g id="Donate" fill="#2ECCAA" fill-rule="nonzero" stroke="#FFF" transform="translate(-534.000000, -1410.000000)"><path id="Silhouette" d="M634.962672,1411 C635.064834,1411 635.170925,1411.0004 635.273087,1411.00119 C642.041311,1411.07574 648.746667,1413.16272 654.484628,1416.80771 C670.108716,1426.73309 677.898559,1446.07508 678.07027,1465.06535 C678.072627,1465.2882 678.069877,1465.51066 678.063197,1465.73312 L678.15082,1465.73312 C678.128041,1485.80273 673.297851,1506.15492 663.127008,1523.23579 C660.209743,1523.22113 657.302739,1522.62786 654.562419,1521.43471 C648.38958,1518.74765 642.953979,1513.67286 638.532018,1506.80668 C639.793077,1504.56697 640.929576,1502.24782 641.944257,1499.89022 C646.393407,1489.55284 648.509337,1478.23323 648.671617,1466.99729 C648.648041,1466.77443 648.629574,1466.55078 648.615821,1466.32634 L648.60364,1465.74978 C648.593817,1461.34422 647.922299,1456.87919 646.405195,1452.72227 C644.657441,1447.93287 641.871565,1443.1395 637.451492,1441.27022 C636.672109,1440.94121 635.853504,1440.79742 635.037328,1440.80731 C635.024886,1440.80835 635.012444,1440.8081 635,1440.80787 C634.987556,1440.8081 634.975114,1440.80835 634.962672,1440.80865 C634.146016,1440.7975 633.327662,1440.94131 632.548508,1441.27022 C628.128435,1443.1395 625.342559,1447.93287 623.594805,1452.72227 C622.077701,1456.87919 621.406183,1461.34422 621.39636,1465.74978 L621.384179,1466.32634 C621.370426,1466.55078 621.351959,1466.77443 621.328383,1466.99729 C621.490663,1478.23323 623.606593,1489.55284 628.055743,1499.89022 C633.038492,1511.46758 640.958788,1522.11783 652.141585,1526.98574 C660.577798,1530.65889 669.92954,1529.79245 677.575963,1525.4662 C687.06916,1520.09468 693.917935,1510.59638 698.40127,1500.3962 C707.713718,1479.19682 707.937688,1453.35118 698.644886,1431.59664 C707.70193,1426.90955 707.682283,1417.56391 707.682283,1417.56391 C707.682283,1417.56391 716.165649,1423.63771 725.705997,1419.82419 C738.409433,1449.56146 738.102948,1484.57389 724.707954,1513.86228 C716.876853,1530.98524 704.161628,1545.98632 687.521029,1553.70416 C672.707557,1560.57579 655.288956,1560.74749 640.463696,1554.29342 C627.141394,1548.49165 616.305948,1538.03888 608.51021,1525.88455 C597.219751,1508.28138 591.873148,1486.85082 591.84918,1465.73312 L591.936803,1465.73312 C591.930123,1465.51066 591.927373,1465.2882 591.92973,1465.06535 C592.101441,1446.07508 599.891284,1426.73309 615.515372,1416.80771 C621.253333,1413.16272 627.958689,1411.07574 634.726913,1411.00119 C634.804382,1411.00059 634.884111,1411.00021 634.962672,1411.00007 L634.962672,1411 Z M628.484124,1554.73859 C613.891663,1560.73568 596.943411,1560.41388 582.478971,1553.70416 C565.838372,1545.98632 553.123147,1530.98524 545.292046,1513.86228 C531.897052,1484.57389 531.590567,1449.56146 544.294003,1419.82419 C553.834351,1423.63771 562.317717,1417.56391 562.317717,1417.56391 C562.317717,1417.56391 562.29807,1426.90955 571.355114,1431.59664 C562.062312,1453.35118 562.286282,1479.19682 571.59873,1500.3962 C576.082065,1510.59638 582.93084,1520.09468 592.424037,1525.4662 C595.812342,1527.38326 599.535499,1528.62096 603.365467,1529.08534 C603.379644,1529.10749 603.39383,1529.12962 603.408023,1529.15175 C610.171563,1539.69678 618.69167,1548.48465 628.484124,1554.73859 L628.484124,1554.73859 Z"/></g></g></svg>