<?xml version="1.0" encoding="UTF-8" standalone="no"?>
<!DOCTYPE svg PUBLIC "-//W3C//DTD SVG 1.1//EN" "http://www.w3.org/Graphics/SVG/1.1/DTD/svg11.dtd">
<svg width="100%" height="100%" viewBox="0 0 460 400" version="1.1" xmlns="http://www.w3.org/2000/svg" xmlns:xlink="http://www.w3.org/1999/xlink" xml:space="preserve" xmlns:serif="http://www.serif.com/" style="fill-rule:evenodd;clip-rule:evenodd;stroke-linejoin:round;stroke-miterlimit:1.41421;">
    <g transform="matrix(1,0,0,1,-12324,-1737)">
        <g transform="matrix(1,0,0,1,-0.648294,0)">
            <g id="White-Square" transform="matrix(0.717338,0,0,0.717338,8075.44,398.625)">
                <g transform="matrix(1.39404,0,0,1.39404,-11256.6,-555.7)">
                    <g>
                        <path d="M12554,1737.94L12554.4,1737.94C12566.2,1738.07 12577.9,1741.71 12587.9,1748.08C12615.2,1765.39 12628.7,1799.14 12629,1832.28C12629.1,1832.67 12629,1833.06 12629,1833.45L12629.2,1833.45C12629.1,1868.47 12620.7,1903.98 12603,1933.79C12597.9,1933.76 12592.8,1932.73 12588.1,1930.64C12577.3,1925.95 12567.8,1917.1 12560.1,1905.12C12562.3,1901.21 12564.3,1897.16 12566.1,1893.05C12573.8,1875.01 12577.5,1855.26 12577.8,1835.65C12577.7,1835.26 12577.7,1834.87 12577.7,1834.48L12577.7,1833.48C12577.7,1825.79 12576.5,1818 12573.8,1810.74C12570.8,1802.39 12565.9,1794.02 12558.2,1790.76C12556.9,1790.19 12555.4,1789.93 12554,1789.95L12554,1789.95L12554,1789.95L12553.9,1789.95L12553.9,1789.95C12552.5,1789.93 12551,1790.19 12549.7,1790.76C12542,1794.02 12537.1,1802.39 12534.1,1810.74C12531.4,1818 12530.3,1825.79 12530.2,1833.48L12530.2,1834.48C12530.2,1834.87 12530.2,1835.26 12530.1,1835.65C12530.4,1855.26 12534.1,1875.01 12541.8,1893.05C12550.5,1913.25 12564.3,1931.84 12583.8,1940.33C12598.5,1946.74 12614.9,1945.23 12628.2,1937.68C12644.7,1928.3 12656.7,1911.73 12664.5,1893.93C12680.7,1856.94 12681.1,1811.84 12664.9,1773.88C12680.7,1765.7 12680.7,1749.39 12680.7,1749.39C12680.7,1749.39 12695.5,1759.99 12712.1,1753.34C12734.3,1805.23 12733.7,1866.32 12710.4,1917.43C12696.7,1947.31 12674.5,1973.48 12645.5,1986.95C12619.7,1998.94 12589.3,1999.24 12563.5,1987.98C12540.3,1977.86 12521.4,1959.62 12507.8,1938.41C12488.1,1907.69 12478.8,1870.3 12478.7,1833.45L12478.9,1833.45C12478.9,1833.06 12478.9,1832.67 12478.9,1832.28C12479.2,1799.14 12492.7,1765.39 12520,1748.08C12530,1741.71 12541.7,1738.07 12553.5,1737.94L12553.9,1737.94L12553.9,1737.94L12554,1737.94L12554,1737.94L12554,1737.94ZM12542.6,1988.76C12517.1,1999.22 12487.6,1998.66 12462.4,1986.95C12433.4,1973.48 12411.2,1947.31 12397.5,1917.43C12374.2,1866.32 12373.7,1805.23 12395.8,1753.34C12412.4,1759.99 12427.2,1749.39 12427.2,1749.39C12427.2,1749.39 12427.2,1765.7 12443,1773.88C12426.8,1811.84 12427.2,1856.94 12443.4,1893.93C12451.2,1911.73 12463.2,1928.3 12479.7,1937.68C12485.6,1941.02 12492.1,1943.18 12498.8,1943.99C12498.8,1944.03 12498.8,1944.07 12498.9,1944.11C12510.7,1962.51 12525.5,1977.84 12542.6,1988.76Z" style="fill:white;fill-rule:nonzero;"/>
                    </g>
                </g>
                <g transform="matrix(4.90977,0,0,4.90977,5332.17,2187.27)">
                    <path d="M120.48,28.38L124.08,28.38L125.76,38.28C125.92,39.34 126.085,40.39 126.255,41.43C126.425,42.47 126.59,43.51 126.75,44.55L126.87,44.55C127.07,43.51 127.275,42.465 127.485,41.415C127.695,40.365 127.91,39.32 128.13,38.28L130.56,28.38L133.56,28.38L135.99,38.28C136.21,39.3 136.425,40.335 136.635,41.385C136.845,42.435 137.06,43.49 137.28,44.55L137.4,44.55C137.56,43.49 137.72,42.44 137.88,41.4L138.36,38.28L140.04,28.38L143.4,28.38L139.62,48L135.3,48L132.87,37.68C132.71,36.92 132.56,36.165 132.42,35.415C132.28,34.665 132.14,33.91 132,33.15L131.88,33.15C131.74,33.91 131.6,34.665 131.46,35.415C131.32,36.165 131.17,36.92 131.01,37.68L128.64,48L124.38,48L120.48,28.38ZM148.37,28.38L160.16,28.38L160.16,31.32L151.85,31.32L151.85,36.33L158.9,36.33L158.9,39.27L151.85,39.27L151.85,45.06L160.46,45.06L160.46,48L148.37,48L148.37,28.38ZM166.39,28.38L172.66,28.38C173.66,28.38 174.59,28.465 175.45,28.635C176.31,28.805 177.05,29.075 177.67,29.445C178.29,29.815 178.775,30.31 179.125,30.93C179.475,31.55 179.65,32.31 179.65,33.21C179.65,34.15 179.38,35.02 178.84,35.82C178.3,36.62 177.45,37.17 176.29,37.47L176.29,37.59C177.71,37.83 178.8,38.335 179.56,39.105C180.32,39.875 180.7,40.92 180.7,42.24C180.7,43.22 180.51,44.07 180.13,44.79C179.75,45.51 179.225,46.11 178.555,46.59C177.885,47.07 177.09,47.425 176.17,47.655C175.25,47.885 174.25,48 173.17,48L166.39,48L166.39,28.38ZM172.33,36.51C173.71,36.51 174.705,36.26 175.315,35.76C175.925,35.26 176.23,34.55 176.23,33.63C176.23,32.73 175.915,32.08 175.285,31.68C174.655,31.28 173.7,31.08 172.42,31.08L169.87,31.08L169.87,36.51L172.33,36.51ZM172.81,45.3C174.25,45.3 175.355,45.03 176.125,44.49C176.895,43.95 177.28,43.12 177.28,42C177.28,40.98 176.9,40.225 176.14,39.735C175.38,39.245 174.27,39 172.81,39L169.87,39L169.87,45.3L172.81,45.3ZM186.21,28.38L189.69,28.38L189.69,45.06L197.82,45.06L197.82,48L186.21,48L186.21,28.38ZM211.49,39.96L210.8,37.56C210.5,36.52 210.2,35.45 209.9,34.35C209.6,33.25 209.31,32.16 209.03,31.08L208.91,31.08C208.63,32.18 208.35,33.275 208.07,34.365C207.79,35.455 207.49,36.52 207.17,37.56L206.48,39.96L211.49,39.96ZM212.27,42.69L205.7,42.69L204.17,48L200.6,48L207.02,28.38L211.1,28.38L217.49,48L213.8,48L212.27,42.69ZM224.59,31.32L218.92,31.32L218.92,28.38L233.71,28.38L233.71,31.32L228.07,31.32L228.07,48L224.59,48L224.59,31.32ZM238.92,28.38L250.71,28.38L250.71,31.32L242.4,31.32L242.4,36.33L249.45,36.33L249.45,39.27L242.4,39.27L242.4,45.06L251.01,45.06L251.01,48L238.92,48L238.92,28.38Z" style="fill:white;fill-rule:nonzero;"/>
                </g>
            </g>
        </g>
    </g>
</svg>
