<?xml version="1.0" encoding="UTF-8"?>
<svg xmlns="http://www.w3.org/2000/svg" xmlns:xlink="http://www.w3.org/1999/xlink" width="110.4pt" height="96pt" viewBox="0 0 110.4 96" version="1.2">
<defs>
<clipPath id="clip1">
  <path d="M 13 0.257812 L 97 0.257812 L 97 63 L 13 63 Z M 13 0.257812 "/>
</clipPath>
<clipPath id="clip2">
  <path d="M 0 79 L 109.804688 79 L 109.804688 95.738281 L 0 95.738281 Z M 0 79 "/>
</clipPath>
</defs>
<g id="surface1">
<g clip-path="url(#clip1)" clip-rule="nonzero">
<path style=" stroke:none;fill-rule:nonzero;fill:rgb(100%,100%,100%);fill-opacity:1;" d="M 54.90625 0.484375 L 55.003906 0.484375 C 57.820312 0.515625 60.613281 1.382812 63 2.902344 C 69.503906 7.039062 72.746094 15.09375 72.816406 23.003906 C 72.816406 23.097656 72.816406 23.1875 72.8125 23.28125 L 72.847656 23.28125 C 72.839844 31.640625 70.828125 40.117188 66.597656 47.234375 C 65.382812 47.226562 64.171875 46.980469 63.03125 46.484375 C 60.464844 45.363281 58.199219 43.25 56.359375 40.390625 C 56.886719 39.457031 57.359375 38.492188 57.78125 37.507812 C 59.632812 33.203125 60.511719 28.488281 60.582031 23.808594 C 60.570312 23.714844 60.5625 23.621094 60.558594 23.527344 L 60.550781 23.289062 C 60.546875 21.453125 60.269531 19.59375 59.636719 17.863281 C 58.910156 15.867188 57.75 13.871094 55.910156 13.09375 C 55.585938 12.957031 55.246094 12.894531 54.90625 12.898438 L 54.875 12.898438 C 54.535156 12.894531 54.195312 12.957031 53.871094 13.09375 C 52.03125 13.871094 50.871094 15.867188 50.144531 17.863281 C 49.511719 19.59375 49.234375 21.453125 49.230469 23.289062 L 49.222656 23.527344 C 49.21875 23.621094 49.210938 23.714844 49.199219 23.808594 C 49.269531 28.488281 50.148438 33.203125 52 37.507812 C 54.074219 42.332031 57.371094 46.765625 62.023438 48.792969 C 65.535156 50.324219 69.425781 49.964844 72.609375 48.160156 C 76.5625 45.925781 79.410156 41.96875 81.277344 37.71875 C 85.152344 28.890625 85.246094 18.125 81.378906 9.0625 C 85.148438 7.109375 85.140625 3.21875 85.140625 3.21875 C 85.140625 3.21875 88.671875 5.746094 92.640625 4.160156 C 97.929688 16.546875 97.800781 31.128906 92.226562 43.328125 C 88.964844 50.460938 83.675781 56.707031 76.75 59.921875 C 70.582031 62.785156 63.335938 62.855469 57.164062 60.167969 C 51.621094 57.753906 47.109375 53.398438 43.867188 48.335938 C 39.167969 41.003906 36.941406 32.078125 36.929688 23.28125 L 36.96875 23.28125 C 36.964844 23.1875 36.964844 23.097656 36.964844 23.003906 C 37.035156 15.09375 40.277344 7.039062 46.78125 2.902344 C 49.167969 1.382812 51.960938 0.515625 54.777344 0.484375 Z M 52.179688 60.355469 C 46.105469 62.851562 39.050781 62.71875 33.03125 59.921875 C 26.105469 56.707031 20.8125 50.460938 17.554688 43.328125 C 11.980469 31.128906 11.851562 16.546875 17.140625 4.160156 C 21.109375 5.746094 24.640625 3.21875 24.640625 3.21875 C 24.640625 3.21875 24.632812 7.109375 28.402344 9.0625 C 24.535156 18.125 24.628906 28.890625 28.503906 37.71875 C 30.371094 41.96875 33.21875 45.925781 37.171875 48.160156 C 38.582031 48.960938 40.128906 49.476562 41.722656 49.667969 C 41.730469 49.679688 41.734375 49.6875 41.742188 49.695312 C 44.558594 54.089844 48.101562 57.75 52.179688 60.355469 Z M 52.179688 60.355469 "/>
</g>
<g clip-path="url(#clip2)" clip-rule="nonzero">
<path style=" stroke:none;fill-rule:nonzero;fill:rgb(100%,100%,100%);fill-opacity:1;" d="M 0.0234375 79.171875 L 3.046875 79.171875 L 4.460938 87.496094 C 4.59375 88.386719 4.734375 89.269531 4.875 90.144531 C 5.019531 91.019531 5.160156 91.890625 5.292969 92.765625 L 5.394531 92.765625 C 5.5625 91.890625 5.734375 91.015625 5.910156 90.132812 C 6.085938 89.25 6.269531 88.371094 6.453125 87.496094 L 8.496094 79.171875 L 11.019531 79.171875 L 13.0625 87.496094 C 13.246094 88.351562 13.425781 89.222656 13.601562 90.105469 C 13.78125 90.988281 13.960938 91.875 14.144531 92.765625 L 14.246094 92.765625 C 14.382812 91.875 14.515625 90.992188 14.648438 90.117188 L 15.054688 87.496094 L 16.464844 79.171875 L 19.289062 79.171875 L 16.113281 95.667969 L 12.480469 95.667969 L 10.4375 86.992188 C 10.304688 86.351562 10.175781 85.71875 10.058594 85.085938 C 9.941406 84.457031 9.824219 83.820312 9.707031 83.183594 L 9.605469 83.183594 C 9.488281 83.820312 9.371094 84.457031 9.253906 85.085938 C 9.136719 85.71875 9.007812 86.351562 8.875 86.992188 L 6.882812 95.667969 L 3.300781 95.667969 Z M 23.46875 79.171875 L 33.382812 79.171875 L 33.382812 81.644531 L 26.394531 81.644531 L 26.394531 85.855469 L 32.320312 85.855469 L 32.320312 88.328125 L 26.394531 88.328125 L 26.394531 93.195312 L 33.632812 93.195312 L 33.632812 95.667969 L 23.46875 95.667969 Z M 38.617188 79.171875 L 43.890625 79.171875 C 44.730469 79.171875 45.511719 79.246094 46.234375 79.386719 C 46.957031 79.53125 47.582031 79.757812 48.101562 80.066406 C 48.621094 80.378906 49.03125 80.796875 49.324219 81.316406 C 49.617188 81.835938 49.765625 82.476562 49.765625 83.234375 C 49.765625 84.023438 49.539062 84.753906 49.085938 85.425781 C 48.632812 86.101562 47.917969 86.5625 46.941406 86.816406 L 46.941406 86.914062 C 48.136719 87.117188 49.050781 87.542969 49.691406 88.1875 C 50.328125 88.835938 50.648438 89.714844 50.648438 90.824219 C 50.648438 91.648438 50.488281 92.363281 50.167969 92.96875 C 49.851562 93.574219 49.410156 94.078125 48.847656 94.480469 C 48.28125 94.886719 47.613281 95.183594 46.839844 95.378906 C 46.066406 95.570312 45.226562 95.667969 44.320312 95.667969 L 38.617188 95.667969 Z M 43.613281 86.007812 C 44.773438 86.007812 45.609375 85.796875 46.121094 85.378906 C 46.632812 84.957031 46.890625 84.359375 46.890625 83.585938 C 46.890625 82.828125 46.625 82.285156 46.097656 81.945312 C 45.566406 81.609375 44.765625 81.441406 43.6875 81.441406 L 41.542969 81.441406 L 41.542969 86.007812 Z M 44.015625 93.398438 C 45.226562 93.398438 46.15625 93.171875 46.804688 92.714844 C 47.449219 92.261719 47.773438 91.566406 47.773438 90.625 C 47.773438 89.765625 47.453125 89.132812 46.816406 88.71875 C 46.175781 88.308594 45.242188 88.101562 44.015625 88.101562 L 41.542969 88.101562 L 41.542969 93.398438 Z M 55.28125 79.171875 L 58.207031 79.171875 L 58.207031 93.195312 L 65.042969 93.195312 L 65.042969 95.667969 L 55.28125 95.667969 Z M 76.535156 88.90625 L 75.953125 86.890625 C 75.703125 86.015625 75.449219 85.117188 75.199219 84.191406 C 74.945312 83.265625 74.703125 82.351562 74.464844 81.441406 L 74.367188 81.441406 C 74.128906 82.367188 73.894531 83.289062 73.660156 84.203125 C 73.421875 85.121094 73.171875 86.015625 72.902344 86.890625 L 72.324219 88.90625 Z M 77.191406 91.203125 L 71.667969 91.203125 L 70.378906 95.667969 L 67.378906 95.667969 L 72.777344 79.171875 L 76.207031 79.171875 L 81.578125 95.667969 L 78.476562 95.667969 Z M 87.546875 81.644531 L 82.78125 81.644531 L 82.78125 79.171875 L 95.214844 79.171875 L 95.214844 81.644531 L 90.472656 81.644531 L 90.472656 95.667969 L 87.546875 95.667969 Z M 99.59375 79.171875 L 109.507812 79.171875 L 109.507812 81.644531 L 102.519531 81.644531 L 102.519531 85.855469 L 108.449219 85.855469 L 108.449219 88.328125 L 102.519531 88.328125 L 102.519531 93.195312 L 109.757812 93.195312 L 109.757812 95.667969 L 99.59375 95.667969 Z M 99.59375 79.171875 "/>
</g>
</g>
</svg>
