<svg xmlns="http://www.w3.org/2000/svg" xmlns:xlink="http://www.w3.org/1999/xlink" width="282.88" height="82.88" version="1.2" viewBox="0 0 212.16 62.16"><defs><clipPath id="clip1"><path d="M 1 0 L 84 0 L 84 61.332031 L 1 61.332031 Z M 1 0"/></clipPath><clipPath id="clip2"><path d="M 101 23 L 210.332031 23 L 210.332031 40 L 101 40 Z M 101 23"/></clipPath></defs><g id="surface1"><g clip-path="url(#clip1)" clip-rule="nonzero"><path fill="#FFF" fill-opacity="1" fill-rule="nonzero" stroke="none" d="M 42.367188 0.0898438 L 42.464844 0.0898438 C 45.257812 0.121094 48.027344 0.984375 50.394531 2.488281 C 56.847656 6.589844 60.0625 14.582031 60.132812 22.429688 C 60.132812 22.523438 60.132812 22.613281 60.128906 22.707031 L 60.167969 22.707031 C 60.15625 31 58.164062 39.410156 53.964844 46.464844 C 52.757812 46.460938 51.558594 46.214844 50.429688 45.722656 C 47.878906 44.613281 45.636719 42.515625 43.808594 39.675781 C 44.332031 38.753906 44.800781 37.792969 45.21875 36.820312 C 47.054688 32.546875 47.929688 27.871094 47.996094 23.226562 C 47.984375 23.136719 47.976562 23.042969 47.972656 22.949219 L 47.96875 22.714844 C 47.964844 20.890625 47.6875 19.046875 47.058594 17.328125 C 46.339844 15.351562 45.1875 13.371094 43.363281 12.597656 C 43.042969 12.460938 42.703125 12.402344 42.367188 12.40625 L 42.335938 12.40625 C 42 12.402344 41.660156 12.460938 41.339844 12.597656 C 39.515625 13.371094 38.363281 15.351562 37.640625 17.328125 C 37.015625 19.046875 36.738281 20.890625 36.734375 22.714844 L 36.730469 22.949219 C 36.722656 23.042969 36.714844 23.136719 36.707031 23.226562 C 36.773438 27.871094 37.648438 32.546875 39.484375 36.820312 C 41.542969 41.605469 44.8125 46.003906 49.429688 48.015625 C 52.910156 49.535156 56.773438 49.175781 59.929688 47.386719 C 63.847656 45.167969 66.675781 41.242188 68.527344 37.027344 C 72.371094 28.269531 72.464844 17.589844 68.628906 8.601562 C 72.367188 6.664062 72.359375 2.800781 72.359375 2.800781 C 72.359375 2.800781 75.863281 5.3125 79.800781 3.734375 C 85.046875 16.023438 84.917969 30.492188 79.390625 42.59375 C 76.15625 49.667969 70.90625 55.867188 64.035156 59.054688 C 57.917969 61.894531 50.726562 61.964844 44.605469 59.300781 C 39.105469 56.902344 34.632812 52.582031 31.414062 47.5625 C 26.753906 40.285156 24.546875 31.433594 24.535156 22.707031 L 24.570312 22.707031 C 24.570312 22.613281 24.566406 22.523438 24.570312 22.429688 C 24.640625 14.582031 27.855469 6.589844 34.304688 2.488281 C 36.675781 0.984375 39.445312 0.121094 42.238281 0.0898438 Z M 39.660156 59.484375 C 33.636719 61.960938 26.640625 61.828125 20.667969 59.054688 C 13.796875 55.867188 8.546875 49.667969 5.3125 42.59375 C -0.214844 30.492188 -0.34375 16.023438 4.902344 3.734375 C 8.839844 5.3125 12.34375 2.800781 12.34375 2.800781 C 12.34375 2.800781 12.335938 6.664062 16.074219 8.601562 C 12.238281 17.589844 12.328125 28.269531 16.175781 37.027344 C 18.027344 41.242188 20.851562 45.167969 24.773438 47.386719 C 26.171875 48.179688 27.710938 48.691406 29.289062 48.882812 C 29.296875 48.890625 29.300781 48.902344 29.308594 48.910156 C 32.101562 53.269531 35.617188 56.898438 39.660156 59.484375 Z M 39.660156 59.484375"/></g><g clip-path="url(#clip2)" clip-rule="nonzero"><path fill="#FFF" fill-opacity="1" fill-rule="nonzero" stroke="none" d="M 101.382812 23.59375 L 104.386719 23.59375 L 105.785156 31.851562 C 105.917969 32.734375 106.058594 33.613281 106.199219 34.480469 C 106.339844 35.347656 106.476562 36.214844 106.613281 37.082031 L 106.710938 37.082031 C 106.878906 36.214844 107.050781 35.34375 107.222656 34.464844 C 107.398438 33.589844 107.578125 32.71875 107.761719 31.851562 L 109.789062 23.59375 L 112.292969 23.59375 L 114.316406 31.851562 C 114.5 32.703125 114.679688 33.566406 114.855469 34.441406 C 115.03125 35.316406 115.210938 36.195312 115.394531 37.082031 L 115.492188 37.082031 C 115.628906 36.195312 115.761719 35.320312 115.894531 34.453125 L 116.292969 31.851562 L 117.695312 23.59375 L 120.496094 23.59375 L 117.34375 39.957031 L 113.742188 39.957031 L 111.714844 31.351562 C 111.582031 30.71875 111.457031 30.089844 111.339844 29.460938 C 111.222656 28.835938 111.105469 28.207031 110.988281 27.574219 L 110.890625 27.574219 C 110.773438 28.207031 110.65625 28.835938 110.539062 29.460938 C 110.421875 30.089844 110.296875 30.71875 110.164062 31.351562 L 108.1875 39.957031 L 104.632812 39.957031 Z M 124.640625 23.59375 L 134.476562 23.59375 L 134.476562 26.046875 L 127.546875 26.046875 L 127.546875 30.226562 L 133.425781 30.226562 L 133.425781 32.675781 L 127.546875 32.675781 L 127.546875 37.507812 L 134.726562 37.507812 L 134.726562 39.957031 L 124.640625 39.957031 Z M 139.671875 23.59375 L 144.902344 23.59375 C 145.734375 23.59375 146.507812 23.667969 147.226562 23.808594 C 147.945312 23.949219 148.5625 24.175781 149.078125 24.484375 C 149.597656 24.792969 150 25.203125 150.292969 25.722656 C 150.585938 26.238281 150.730469 26.871094 150.730469 27.625 C 150.730469 28.40625 150.503906 29.132812 150.054688 29.800781 C 149.605469 30.46875 148.894531 30.925781 147.925781 31.175781 L 147.925781 31.277344 C 149.113281 31.476562 150.019531 31.898438 150.65625 32.539062 C 151.289062 33.183594 151.605469 34.054688 151.605469 35.15625 C 151.605469 35.972656 151.445312 36.679688 151.128906 37.28125 C 150.8125 37.882812 150.375 38.382812 149.816406 38.78125 C 149.257812 39.183594 148.59375 39.480469 147.828125 39.671875 C 147.058594 39.863281 146.226562 39.957031 145.324219 39.957031 L 139.671875 39.957031 Z M 144.625 30.375 C 145.777344 30.375 146.605469 30.167969 147.113281 29.75 C 147.625 29.332031 147.878906 28.742188 147.878906 27.972656 C 147.878906 27.222656 147.613281 26.679688 147.089844 26.347656 C 146.5625 26.015625 145.769531 25.847656 144.699219 25.847656 L 142.574219 25.847656 L 142.574219 30.375 Z M 145.027344 37.707031 C 146.226562 37.707031 147.148438 37.480469 147.789062 37.03125 C 148.433594 36.582031 148.753906 35.886719 148.753906 34.953125 C 148.753906 34.105469 148.4375 33.472656 147.804688 33.066406 C 147.167969 32.65625 146.242188 32.453125 145.027344 32.453125 L 142.574219 32.453125 L 142.574219 37.707031 Z M 156.203125 23.59375 L 159.101562 23.59375 L 159.101562 37.507812 L 165.882812 37.507812 L 165.882812 39.957031 L 156.203125 39.957031 Z M 177.285156 33.253906 L 176.710938 31.25 C 176.457031 30.382812 176.210938 29.492188 175.957031 28.574219 C 175.707031 27.65625 175.464844 26.746094 175.234375 25.847656 L 175.132812 25.847656 C 174.898438 26.765625 174.667969 27.675781 174.433594 28.585938 C 174.199219 29.496094 173.949219 30.382812 173.679688 31.25 L 173.105469 33.253906 Z M 177.933594 35.53125 L 172.457031 35.53125 L 171.179688 39.957031 L 168.203125 39.957031 L 173.558594 23.59375 L 176.960938 23.59375 L 182.289062 39.957031 L 179.210938 39.957031 Z M 188.210938 26.046875 L 183.480469 26.046875 L 183.480469 23.59375 L 195.816406 23.59375 L 195.816406 26.046875 L 191.113281 26.046875 L 191.113281 39.957031 L 188.210938 39.957031 Z M 200.160156 23.59375 L 209.996094 23.59375 L 209.996094 26.046875 L 203.0625 26.046875 L 203.0625 30.226562 L 208.945312 30.226562 L 208.945312 32.675781 L 203.0625 32.675781 L 203.0625 37.507812 L 210.246094 37.507812 L 210.246094 39.957031 L 200.160156 39.957031 Z M 200.160156 23.59375"/></g></g></svg>