<svg xmlns="http://www.w3.org/2000/svg" xmlns:svg="http://www.w3.org/2000/svg" id="svg2" width="600" height="138" version="1.1"><defs id="defs3"><linearGradient id="_Linear1" x1="0" x2="1" y1="0" y2="0" gradientTransform="matrix(48.3736,0,0,48.3736,0.194896,28.1018)" gradientUnits="userSpaceOnUse"><stop style="stop-color:#00d2e6;stop-opacity:1" id="stop26" offset="0"/><stop style="stop-color:#00fac4;stop-opacity:1" id="stop28" offset="1"/></linearGradient><clipPath id="_clip2"><path id="path6" d="m 63.621,55.807 c -1.443,-0.008 -2.881,-0.302 -4.237,-0.893 -3.057,-1.331 -5.748,-3.846 -7.937,-7.249 0.625,-1.11 1.188,-2.26 1.69,-3.428 0.664,-1.544 1.223,-3.133 1.682,-4.751 1.064,-3.749 15.191,1.009 13.036,7.186 -1.112,3.186 -2.519,6.254 -4.234,9.135 z M 46.47,71.413 c -7.223,2.969 -15.611,2.809 -22.771,-0.514 -8.238,-3.824 0.224,-16.652 4.923,-13.991 1.677,0.95 3.519,1.563 5.414,1.793 0.008,0.012 0.016,0.025 0.024,0.037 3.347,5.223 7.564,9.576 12.41,12.675 z"/></clipPath><linearGradient id="_Linear4" x1="0" x2="1" y1="0" y2="0" gradientTransform="matrix(-48.2918,0,0,-48.2918,99.204,29.3205)" gradientUnits="userSpaceOnUse"><stop style="stop-color:#00c295;stop-opacity:1" id="stop32" offset="0"/><stop style="stop-color:#00fac4;stop-opacity:1" id="stop34" offset="1"/></linearGradient><linearGradient id="a" x1=".396" x2="98.808" y1="55.253" y2="55.253" gradientTransform="scale(0.98308415,1.0172069)" gradientUnits="userSpaceOnUse"><stop id="stop2" offset="0" stop-color="#00d2e6"/><stop id="stop4" offset="1" stop-color="#2eccaa"/></linearGradient><linearGradient id="b" x1="49.017" x2="99.793" y1="137.887" y2="113.962" gradientTransform="scale(1.1630616,0.85979965)" gradientUnits="userSpaceOnUse"><stop id="stop7" offset="0" stop-opacity="0"/><stop id="stop9" offset=".514"/><stop id="stop11" offset="1" stop-opacity="0"/></linearGradient><linearGradient id="c" x1="201.822" x2="103.577" y1="57.649" y2="57.649" gradientTransform="scale(0.98308415,1.0172069)" gradientUnits="userSpaceOnUse"><stop id="stop14" offset="0" stop-color="#1fa385"/><stop id="stop16" offset="1" stop-color="#2eccaa"/></linearGradient></defs><metadata id="metadata6"/><g id="layer2" style="display:inline"><rect style="fill:none;stroke:gray;stroke-width:.99555939" id="rect2989" width="599.004" height="137.004" x=".498" y=".498"/><g id="g4544" transform="matrix(1.9161161,0,0,1.9161161,168.29951,-84.072205)" style="fill:#1fa385;stroke:none;stroke-opacity:1;stroke-width:1.56566713;stroke-miterlimit:4;stroke-dasharray:none;opacity:.5;fill-opacity:1"><path style="fill:#1fa385;fill-rule:nonzero;stroke:none;stroke-width:1.56566713;stroke-opacity:1;stroke-miterlimit:4;stroke-dasharray:none;fill-opacity:1" id="path21" d="m 86.02934,92.531579 c -1.793933,-0.009 -3.581555,-0.374145 -5.266679,-1.108442 -3.7959,-1.653709 -7.138454,-4.776906 -9.857675,-9.002581 0.775468,-1.37839 1.474344,-2.805676 2.09831,-4.256622 2.735941,-6.361968 4.037107,-13.32843 4.136898,-20.243401 -0.01447,-0.137152 -0.02584,-0.274793 -0.03428,-0.412921 l -0.0075,-0.354839 c -0.0062,-2.711322 -0.418981,-5.459252 -1.351909,-8.017559 -1.074753,-2.947556 -2.787888,-5.897553 -5.505954,-7.047974 -0.493885,-0.208656 -1.013384,-0.296268 -1.530467,-0.284066 -3.419024,-6.390277 -3.527756,-12.514058 0,-18.345232 0.06282,0 0.128062,2.44e-4 0.190886,7.33e-4 4.162027,0.04588 8.285391,1.33028 11.813874,3.573527 9.607823,6.108407 14.398077,18.012113 14.503668,29.699351 0.0012,0.137153 -2.42e-4,0.274062 -0.0043,0.41097 h 0.05391 c -0.01404,12.351503 -2.984271,24.876917 -9.23869,35.389056 z M 64.726169,111.91945 c -8.973435,3.6908 -19.395531,3.49275 -28.290243,-0.63663 C 26.203017,106.533 18.383963,97.300846 13.568334,86.762803 5.3312643,68.737757 5.1427952,47.189944 12.954601,28.888641 c 5.866707,2.346965 11.083437,-1.391048 11.083437,-1.391048 0,0 -0.01208,5.751615 5.557424,8.636209 -5.714482,13.388465 -5.576755,29.294727 0.149809,42.341532 2.756966,6.277529 6.968527,12.123101 12.806238,15.428911 2.083592,1.179823 4.373097,1.941541 6.728284,2.227342 0.0087,0.0136 0.01744,0.02727 0.02617,0.04087 4.159146,6.489763 9.39847,11.898103 15.420207,15.746993 z"/><path style="fill:#1fa385;fill-rule:nonzero;stroke:none;stroke-width:1.56566713;stroke-opacity:1;stroke-miterlimit:4;stroke-dasharray:none;fill-opacity:1" id="path25" d="m 42.251892,57.142523 c -0.0041,-0.136908 -0.0058,-0.273817 -0.0043,-0.41097 0.105591,-11.687239 4.895849,-23.590944 14.50367,-29.699351 3.528481,-2.243247 7.651848,-3.527647 11.813875,-3.573527 0.06282,-4.89e-4 0.128063,-7.33e-4 0.190886,-7.33e-4 v 18.345232 c -0.517082,-0.0122 -1.03658,0.07541 -1.530467,0.284066 -2.718063,1.150421 -4.4312,4.100418 -5.505957,7.047974 -0.932922,2.558307 -1.345863,5.306236 -1.351904,8.017559 l -0.0075,0.354839 c -0.0085,0.138128 -0.01981,0.275769 -0.03431,0.412921 0.09979,6.91497 1.400954,13.881433 4.136898,20.243401 3.064073,7.125092 7.934552,13.679613 14.81126,16.675487 5.187739,2.260577 10.938466,1.727339 15.640524,-0.935176 5.837723,-3.30581 10.049283,-9.151382 12.806243,-15.428911 5.72657,-13.046805 5.86429,-28.953067 0.14981,-42.341532 5.56951,-2.884594 5.55743,-8.636209 5.55743,-8.636209 0,0 5.21672,3.738013 11.08343,1.391048 7.81181,18.301303 7.62334,39.849116 -0.61373,57.874162 -4.81563,10.538043 -12.63469,19.770207 -22.86759,24.520017 -9.109348,4.22903 -19.820681,4.3347 -28.937271,0.36265 C 63.900476,108.07487 57.237365,101.64189 52.443483,94.161712 45.500569,83.328137 42.212748,70.139055 42.198009,57.142523 Z"/></g></g></svg>