<?xml version="1.0" encoding="UTF-8" standalone="no"?>
<!-- Created with Inkscape (http://www.inkscape.org/) -->

<svg
   xmlns:dc="http://purl.org/dc/elements/1.1/"
   xmlns:cc="http://creativecommons.org/ns#"
   xmlns:rdf="http://www.w3.org/1999/02/22-rdf-syntax-ns#"
   xmlns:svg="http://www.w3.org/2000/svg"
   xmlns="http://www.w3.org/2000/svg"
   xmlns:sodipodi="http://sodipodi.sourceforge.net/DTD/sodipodi-0.dtd"
   xmlns:inkscape="http://www.inkscape.org/namespaces/inkscape"
   width="600"
   height="211"
   id="svg2"
   inkscape:label="Weblate logo"
   version="1.1"
   inkscape:version="0.92.4 (5da689c313, 2019-01-14)"
   sodipodi:docname="88x31.svg"
   inkscape:export-filename="weblate-widget-88x31-grey.png"
   inkscape:export-xdpi="13.2"
   inkscape:export-ydpi="13.2">
  <defs
     id="defs3">
    <linearGradient
       id="_Linear1"
       x1="0"
       y1="0"
       x2="1"
       y2="0"
       gradientUnits="userSpaceOnUse"
       gradientTransform="matrix(48.3736,0,0,48.3736,0.194896,28.1018)">
      <stop
         offset="0"
         style="stop-color:rgb(0,210,230);stop-opacity:1"
         id="stop26" />
      <stop
         offset="1"
         style="stop-color:rgb(0,250,196);stop-opacity:1"
         id="stop28" />
    </linearGradient>
    <clipPath
       id="_clip2">
      <path
         d="m 63.621,55.807 c -1.443,-0.008 -2.881,-0.302 -4.237,-0.893 -3.057,-1.331 -5.748,-3.846 -7.937,-7.249 0.625,-1.11 1.188,-2.26 1.69,-3.428 0.664,-1.544 1.223,-3.133 1.682,-4.751 1.064,-3.749 15.191,1.009 13.036,7.186 -1.112,3.186 -2.519,6.254 -4.234,9.135 z M 46.47,71.413 c -7.223,2.969 -15.611,2.809 -22.771,-0.514 -8.238,-3.824 0.224,-16.652 4.923,-13.991 1.677,0.95 3.519,1.563 5.414,1.793 0.008,0.012 0.016,0.025 0.024,0.037 3.347,5.223 7.564,9.576 12.41,12.675 z"
         id="path6"
         inkscape:connector-curvature="0" />
    </clipPath>
    <linearGradient
       id="_Linear4"
       x1="0"
       y1="0"
       x2="1"
       y2="0"
       gradientUnits="userSpaceOnUse"
       gradientTransform="matrix(-48.2918,0,0,-48.2918,99.204,29.3205)">
      <stop
         offset="0"
         style="stop-color:rgb(0,194,149);stop-opacity:1"
         id="stop32" />
      <stop
         offset="1"
         style="stop-color:rgb(0,250,196);stop-opacity:1"
         id="stop34" />
    </linearGradient>
    <linearGradient
       id="a"
       x1="0.39649951"
       x2="98.808388"
       y1="55.252808"
       y2="55.252808"
       gradientTransform="scale(0.98308415,1.0172069)"
       gradientUnits="userSpaceOnUse">
      <stop
         offset="0"
         stop-color="#00d2e6"
         id="stop2" />
      <stop
         offset="1"
         stop-color="#2eccaa"
         id="stop4" />
    </linearGradient>
    <linearGradient
       id="b"
       x1="49.0172"
       x2="99.792671"
       y1="137.88686"
       y2="113.96209"
       gradientTransform="scale(1.1630616,0.85979965)"
       gradientUnits="userSpaceOnUse">
      <stop
         offset="0"
         stop-opacity="0"
         id="stop7" />
      <stop
         offset=".514125333"
         id="stop9" />
      <stop
         offset="1"
         stop-opacity="0"
         id="stop11" />
    </linearGradient>
    <linearGradient
       id="c"
       x1="201.82208"
       x2="103.57667"
       y1="57.648952"
       y2="57.648952"
       gradientTransform="scale(0.98308415,1.0172069)"
       gradientUnits="userSpaceOnUse">
      <stop
         offset="0"
         stop-color="#1fa385"
         id="stop14" />
      <stop
         offset="1"
         stop-color="#2eccaa"
         id="stop16" />
    </linearGradient>
  </defs>
  <sodipodi:namedview
     id="base"
     pagecolor="#ffffff"
     bordercolor="#666666"
     borderopacity="1.0"
     inkscape:pageopacity="0.0"
     inkscape:pageshadow="2"
     inkscape:zoom="1.5116666"
     inkscape:cx="82.690188"
     inkscape:cy="69.500003"
     inkscape:document-units="px"
     inkscape:current-layer="layer2"
     showgrid="false"
     inkscape:window-width="1364"
     inkscape:window-height="704"
     inkscape:window-x="0"
     inkscape:window-y="27"
     inkscape:window-maximized="0" />
  <metadata
     id="metadata6">
    <rdf:RDF>
      <cc:Work
         rdf:about="">
        <dc:format>image/svg+xml</dc:format>
        <dc:type
           rdf:resource="http://purl.org/dc/dcmitype/StillImage" />
        <dc:title />
      </cc:Work>
    </rdf:RDF>
  </metadata>
  <g
     inkscape:groupmode="layer"
     id="layer2"
     inkscape:label="Background"
     style="display:inline"
     transform="translate(0,73)">
    <rect
       style="fill:none;stroke:#808080;stroke-width:0.99555945"
       id="rect2989"
       width="599.00446"
       height="210.00444"
       x="0.4977797"
       y="-72.50222" />
    <g
       style="fill:none;fill-rule:evenodd"
       id="g27"
       transform="matrix(0.62109049,0,0,0.62109049,7.1691355,-13.286101)">
      <path
         inkscape:connector-curvature="0"
         style="fill:url(#a);fill-rule:nonzero"
         id="path21"
         d="m 127.24725,111.60641 c -2.88836,-0.0145 -5.76656,-0.6024 -8.47973,-1.78467 -6.11167,-2.66259 -11.49342,-7.69116 -15.87156,-14.494798 1.24856,-2.219307 2.3738,-4.517338 3.37843,-6.853465 4.40506,-10.243222 6.50003,-21.459724 6.6607,-32.59332 -0.0233,-0.220825 -0.0416,-0.442436 -0.0552,-0.664833 l -0.0121,-0.571316 c -0.01,-4.365422 -0.67459,-8.789784 -2.17667,-12.908841 -1.73043,-4.745776 -4.4887,-9.495481 -8.86498,-11.347741 -0.79519,-0.335952 -1.63162,-0.477013 -2.464161,-0.457367 -5.504872,-10.288802 -5.679939,-20.1485266 0,-29.53713169 0.10115,0 0.20619,3.9293e-4 0.30734,0.001179 6.701161,0.0738703 13.340071,2.14184679 19.021181,5.75363459 15.46928,9.8349701 23.18193,29.0007861 23.35194,47.8180741 0.002,0.220826 -3.9e-4,0.441258 -0.007,0.66169 h 0.0868 c -0.0226,19.886801 -4.80489,40.053612 -14.87495,56.978905 z m -34.299625,31.21585 c -14.447871,5.94246 -31.22819,5.62359 -45.54931,-1.02501 C 30.922601,134.1497 18.333366,119.28527 10.57986,102.31827 -2.6824097,73.29666 -2.9858585,38.603143 9.5917057,9.1367387 19.037523,12.915521 27.43683,6.8970531 27.43683,6.8970531 c 0,0 -0.01945,9.2605109 8.94785,13.9049119 -9.200724,21.556385 -8.978973,47.166601 0.241203,68.172888 4.438911,10.107269 11.219825,19.519057 20.618957,24.841647 3.354732,1.8996 7.040998,3.12602 10.833017,3.58618 0.01404,0.0219 0.02808,0.0439 0.04214,0.0658 6.696522,10.44898 15.132208,19.1568 24.827633,25.35378 z" />
      <path
         inkscape:connector-curvature="0"
         style="opacity:0.3;fill:url(#b)"
         id="path23"
         d="m 127.24298,111.61346 c -2.88693,-0.0151 -5.76363,-0.60296 -8.47546,-1.78465 -6.11266,-2.66302 -11.49516,-7.69279 -15.87368,-14.498094 1.24941,-2.220476 2.37535,-4.519788 3.38055,-6.857239 1.32817,-3.088408 2.44626,-6.264833 3.36439,-9.500982 2.12803,-7.497839 30.38184,2.018075 26.0717,14.370923 -2.22386,6.372982 -5.03943,12.509222 -8.4675,18.270042 z m -34.302088,31.21157 c -14.446351,5.93959 -31.223682,5.61979 -45.542576,-1.02778 -16.475715,-7.64755 0.447392,-33.30334 9.846524,-27.98075 3.353286,1.89878 7.037819,3.12496 10.828112,3.58558 0.01567,0.0245 0.03135,0.049 0.04704,0.0735 6.694972,10.44656 15.128303,19.15278 24.8209,25.34948 z" />
      <path
         inkscape:connector-curvature="0"
         style="fill:url(#c);fill-rule:nonzero"
         id="path25"
         d="m 56.762435,54.627505 c -0.0066,-0.220432 -0.0093,-0.440865 -0.007,-0.66169 C 56.925444,35.148526 64.638101,15.982711 80.107377,6.1477407 85.788484,2.5359528 92.427399,0.46797642 99.12856,0.39410609 c 0.10115,-7.8585e-4 0.20619,-0.001179 0.307339,-0.001179 V 29.930059 c -0.832539,-0.01965 -1.668968,0.121414 -2.46416,0.457367 -4.376276,1.85226 -7.134548,6.601965 -8.864984,11.347741 -1.502072,4.119057 -2.166936,8.543418 -2.176662,12.908841 l -0.01206,0.571316 c -0.01362,0.222397 -0.0319,0.444008 -0.05524,0.664833 0.160672,11.133595 2.255636,22.350098 6.660701,32.59332 4.933377,11.471906 12.775196,22.025153 23.847186,26.848723 8.35263,3.63969 17.61171,2.78114 25.18236,-1.5057 9.39914,-5.32259 16.18005,-14.734378 20.61896,-24.841647 9.22018,-21.006287 9.44193,-46.616503 0.24121,-68.172888 8.9673,-4.644401 8.94785,-13.9049119 8.94785,-13.9049119 0,0 8.3993,6.0184679 17.84512,2.2396856 12.57756,29.4664043 12.27412,64.1599213 -0.98815,93.1815313 -7.75351,16.967 -20.34275,31.83144 -36.81846,39.47898 -14.66669,6.80904 -31.9127,6.97917 -46.59106,0.58389 C 91.618199,136.63222 80.890116,126.27466 73.171624,114.23104 61.993036,96.788212 56.699411,75.552849 56.675679,54.627505 Z" />
    </g>
  </g>
  <g
     inkscape:label="Vrstva 1"
     inkscape:groupmode="layer"
     id="layer1"
     transform="translate(0,-841.36218)"
     style="display:inline" />
</svg>
